<?xml version="1.0" encoding="UTF-8"?>
<svg version="1.1" xmlns="http://www.w3.org/2000/svg" width="980" height="980">
<path d="M0 0 C323.4 0 646.8 0 980 0 C980 323.4 980 646.8 980 980 C656.6 980 333.2 980 0 980 C0 656.6 0 333.2 0 0 Z " fill="#FEFEFE" transform="translate(0,0)"/>
<path d="M0 0 C12.78189698 8.37165466 22.40534552 20.10594555 25.82138062 35.18267822 C27.2255511 43.87838461 26.57327222 52.96423341 26.43359375 61.73828125 C26.41349321 63.94334311 26.39524875 66.14842271 26.37890625 68.35351562 C26.33520446 73.71132988 26.26857613 79.06847097 26.18359375 84.42578125 C27.44816406 84.40257812 28.71273437 84.379375 30.015625 84.35546875 C31.67577535 84.33670999 33.33593208 84.3185099 34.99609375 84.30078125 C35.82947266 84.28402344 36.66285156 84.26726562 37.52148438 84.25 C38.32392578 84.24355469 39.12636719 84.23710937 39.953125 84.23046875 C40.69151611 84.21999512 41.42990723 84.20952148 42.19067383 84.19873047 C44.18359375 84.42578125 44.18359375 84.42578125 47.18359375 86.42578125 C47.56111717 88.39981842 47.56111717 88.39981842 47.56454468 90.86682129 C47.57300415 91.8006514 47.58146362 92.73448151 47.59017944 93.6966095 C47.5810704 95.2380085 47.5810704 95.2380085 47.57177734 96.81054688 C47.57966278 98.43013557 47.57966278 98.43013557 47.58770752 100.08244324 C47.60095462 103.66578467 47.59215255 107.24868499 47.58203125 110.83203125 C47.58405062 113.31302984 47.58696091 115.79402786 47.59072876 118.27502441 C47.59572672 124.14814575 47.58519901 130.02110593 47.56927645 135.89420366 C47.55801205 140.58301747 47.56199521 145.27164243 47.57470703 149.96044922 C47.59205591 156.41425574 47.59484235 162.8678792 47.58504105 169.32170105 C47.58303415 171.7873692 47.58551536 174.25304509 47.59247971 176.71870422 C47.600065 180.15968679 47.58853055 183.60007736 47.57177734 187.04101562 C47.57785004 188.06861496 47.58392273 189.09621429 47.59017944 190.154953 C47.57749023 191.55569817 47.57749023 191.55569817 47.56454468 192.98474121 C47.5634136 193.79885216 47.56228252 194.6129631 47.56111717 195.45174408 C47.43653444 196.10317635 47.31195171 196.75460861 47.18359375 197.42578125 C43.7193407 199.73528328 42.41590126 199.67685373 38.33152771 199.67974854 C36.49959869 199.68820801 36.49959869 199.68820801 34.63066101 199.69683838 C33.27517641 199.6929497 31.9196924 199.68885335 30.56420898 199.68457031 C29.13845643 199.68727998 27.71270528 199.69084078 26.28695679 199.69519043 C22.41312192 199.70431877 18.53939342 199.70076859 14.66555667 199.69443226 C10.6159071 199.68937555 6.56626675 199.6940627 2.51661682 199.69720459 C-4.28345376 199.70084478 -11.08348093 199.69604332 -17.88354492 199.68652344 C-25.75262286 199.6756344 -33.62159721 199.67916749 -41.49067265 199.69017625 C-48.2406114 199.69924241 -54.9905189 199.70053783 -61.74046177 199.69529891 C-65.77473617 199.69217607 -69.80896181 199.69177853 -73.84323311 199.69837189 C-77.63449217 199.70413515 -81.42561719 199.70016731 -85.21686172 199.68858337 C-86.61088399 199.68593149 -88.00491747 199.68671085 -89.39893532 199.6911087 C-91.29639416 199.69654443 -93.19387755 199.68853083 -95.09132385 199.67974854 C-96.15486367 199.67899448 -97.21840349 199.67824043 -98.31417179 199.67746353 C-100.81640625 199.42578125 -100.81640625 199.42578125 -102.81640625 197.42578125 C-103.06808853 195.47015476 -103.06808853 195.47015476 -103.07037354 193.0294342 C-103.07601318 192.10546341 -103.08165283 191.18149261 -103.08746338 190.22952271 C-103.08341492 189.21284515 -103.07936646 188.1961676 -103.07519531 187.14868164 C-103.07869995 186.0803157 -103.08220459 185.01194977 -103.08581543 183.91120911 C-103.0946472 180.36521993 -103.08877801 176.81942886 -103.08203125 173.2734375 C-103.08337758 170.81725526 -103.08531785 168.36107329 -103.08782959 165.90489197 C-103.0907829 160.75077789 -103.0864769 155.59673301 -103.07714844 150.44262695 C-103.06575984 143.82676458 -103.07230842 137.21106457 -103.08429337 130.59520817 C-103.09151146 125.52097851 -103.08922415 120.4467875 -103.08403778 115.37255669 C-103.08270084 112.93283507 -103.08435055 110.49310997 -103.08899689 108.05339241 C-103.09406056 104.64625852 -103.08635362 101.2393895 -103.07519531 97.83227539 C-103.07924377 96.81762207 -103.08329224 95.80296875 -103.08746338 94.75756836 C-103.08182373 93.83077774 -103.07618408 92.90398712 -103.07037354 91.94911194 C-103.06961948 91.14329713 -103.06886543 90.33748232 -103.06808853 89.50724888 C-102.81640625 87.42578125 -102.81640625 87.42578125 -100.81640625 84.42578125 C-98.84521484 84.08520508 -98.84521484 84.08520508 -96.46484375 84.1328125 C-95.6140625 84.14248047 -94.76328125 84.15214844 -93.88671875 84.16210938 C-92.99726563 84.18724609 -92.1078125 84.21238281 -91.19140625 84.23828125 C-89.845625 84.25858398 -89.845625 84.25858398 -88.47265625 84.27929688 C-86.25330836 84.314712 -84.03515437 84.36409664 -81.81640625 84.42578125 C-81.82687988 83.17555176 -81.83735352 81.92532227 -81.84814453 80.63720703 C-81.88458777 75.9593395 -81.90739458 71.28148429 -81.92626953 66.60351562 C-81.93627201 64.58624149 -81.94987831 62.56898165 -81.96728516 60.55175781 C-81.99178823 57.63733371 -82.00294716 54.72310277 -82.01171875 51.80859375 C-82.02204132 50.91963409 -82.03236389 50.03067444 -82.04299927 49.11477661 C-82.04569929 33.74104832 -77.0115989 18.98381449 -66.2578125 7.75390625 C-47.6090067 -8.94651686 -22.19790419 -12.40742773 0 0 Z " fill="#0A0A0A" transform="translate(517.81640625,274.57421875)"/>
<path d="M0 0 C42.9 0 85.8 0 130 0 C130 31.35 130 62.7 130 95 C87.1 95 44.2 95 0 95 C0 63.65 0 32.3 0 0 Z " fill="#FCFCFC" transform="translate(425,369)"/>
<path d="M0 0 C0.80824219 0.53496094 1.61648438 1.06992187 2.44921875 1.62109375 C3.56296875 2.32234375 4.67671875 3.02359375 5.82421875 3.74609375 C14.09292452 12.80229531 15.86371779 23.00146554 15.6640625 34.82421875 C15.08992782 44.97074438 11.12836467 53.3358121 3.82421875 60.37109375 C-4.3205185 66.9868004 -13.4595162 68.53934635 -23.73046875 68.07421875 C-31.61658564 67.1388511 -37.42268843 63.65414412 -42.55078125 57.62109375 C-43.23140625 56.89921875 -43.91203125 56.17734375 -44.61328125 55.43359375 C-51.85130473 44.92678548 -52.58359405 32.96291823 -51.55078125 20.62109375 C-50.76188771 17.13285362 -49.55653319 14.56482968 -47.55078125 11.62109375 C-46.76960937 10.45513672 -46.76960937 10.45513672 -45.97265625 9.265625 C-35.17286927 -5.64489171 -15.9726887 -9.43543548 0 0 Z " fill="#FAFAFA" transform="translate(609.55078125,667.37890625)"/>
<path d="M0 0 C5.878125 -0.12375 11.75625 -0.2475 17.8125 -0.375 C19.64401611 -0.42962402 21.47553223 -0.48424805 23.36254883 -0.54052734 C33.88467852 -0.72309006 41.93486275 0.27392657 49.94775391 7.83886719 C57.20241692 15.60242918 58.18001964 23.64669353 58.1875 33.8125 C58.19974609 34.67681641 58.21199219 35.54113281 58.22460938 36.43164062 C58.24689532 46.2746011 55.97238653 54.03681796 50 62 C36.82919391 74.95489123 16.52065684 70 0 70 C0 46.9 0 23.8 0 0 Z " fill="#F9F9F9" transform="translate(707,664)"/>
<path d="M0 0 C6.0551343 3.58900508 11.80521967 8.25874541 13.79440308 15.23020935 C15.11966179 20.81600959 15.52284516 26.01801698 15.44921875 31.74609375 C15.44720459 32.50369995 15.44519043 33.26130615 15.44311523 34.04187012 C15.43278118 36.82745563 15.40486046 39.61295373 15.37890625 42.3984375 C15.33765625 48.6478125 15.29640625 54.8971875 15.25390625 61.3359375 C-3.88609375 61.3359375 -23.02609375 61.3359375 -42.74609375 61.3359375 C-42.84921875 54.4471875 -42.95234375 47.5584375 -43.05859375 40.4609375 C-43.10411377 38.3070752 -43.14963379 36.15321289 -43.1965332 33.93408203 C-43.33677792 22.70660983 -43.02590526 14.59521935 -35.53515625 5.71484375 C-24.98477007 -3.1406248 -13.03197655 -6.05439438 0 0 Z " fill="#FBFBFB" transform="translate(503.74609375,297.6640625)"/>
<path d="M0 0 C7.76104144 4.68896254 11.91263712 10.29350507 14.60546875 18.9453125 C16.23396845 27.42640994 15.13288801 34.51856769 11 42 C10.32963735 43.33147893 9.66189201 44.66429 9 46 C8.34 46 7.68 46 7 46 C6.814375 46.556875 6.62875 47.11375 6.4375 47.6875 C3.3309089 52.6850596 -2.29352161 55.64251215 -7.76953125 57.49609375 C-16.91731219 59.56275529 -25.11869037 57.6799347 -33.1875 53.25 C-39.75350025 47.9971998 -44.21173434 41.66284125 -46.75 33.625 C-47.56903188 25.02516524 -46.81567856 18.84178057 -43 11 C-42.566875 10.0925 -42.13375 9.185 -41.6875 8.25 C-31.69649442 -5.07134078 -14.46336384 -8.23336759 0 0 Z " fill="#FAFAFA" transform="translate(506,527)"/>
<path d="M0 0 C8.90349563 4.72531891 15.93789563 10.68868688 19.1875 20.4375 C19.93366938 30.42551019 20.20520425 38.9616354 14.1875 47.4375 C13.75308594 48.09105469 13.31867188 48.74460937 12.87109375 49.41796875 C8.44043837 55.3381322 2.06733722 58.14422093 -4.8125 60.4375 C-13.18521484 61.15381922 -20.43541968 60.68658754 -27.8125 56.4375 C-30.625 54.0625 -30.625 54.0625 -32.8125 51.4375 C-34.0809375 50.0453125 -34.0809375 50.0453125 -35.375 48.625 C-36.20415069 47.57544217 -37.0165956 46.51248776 -37.8125 45.4375 C-38.20953125 44.921875 -38.6065625 44.40625 -39.015625 43.875 C-43.2939644 37.12607025 -43.01309476 28.12056875 -41.8125 20.4375 C-39.41139187 13.1917532 -35.18095368 7.60686688 -28.8125 3.4375 C-27.73548828 2.71046875 -27.73548828 2.71046875 -26.63671875 1.96875 C-18.53009515 -2.8076567 -8.79580631 -3.53677526 0 0 Z " fill="#FAFAFA" transform="translate(332.8125,338.5625)"/>
<path d="M0 0 C5.63075339 4.35886557 9.7782809 9.54687679 11.1875 16.625 C12.30051908 27.12076994 11.61412614 34.82523898 5.1875 43.625 C4.27871094 44.8934375 4.27871094 44.8934375 3.3515625 46.1875 C-1.48584971 51.63613758 -8.26907709 55.05039088 -15.42578125 56.2109375 C-25.35993463 56.49321945 -33.33411115 54.24636783 -40.8125 47.625 C-42.2916161 45.84166853 -43.7089928 44.00544511 -45.0625 42.125 C-45.74828125 41.1865625 -46.4340625 40.248125 -47.140625 39.28125 C-51.48840909 32.37355566 -50.64379232 21.97020964 -49.421875 14.11328125 C-47.03771458 6.57872301 -40.77232916 0.4670969 -34.0625 -3.375 C-22.66225409 -9.28016335 -10.35968272 -6.89901285 0 0 Z " fill="#FAFAFA" transform="translate(677.8125,343.375)"/>
<path d="M0 0 C7.26988358 4.36193015 12.81457426 10.81824459 15.4453125 18.9296875 C16.44811416 29.70980538 15.49300343 39.16306525 8.42578125 47.80078125 C1.90266655 54.64784295 -5.22826323 58.67417332 -14.7421875 58.9921875 C-23.22083016 58.73383551 -30.72235213 56.11913102 -36.86328125 50.0859375 C-44.07107861 42.17713242 -46.72078316 34.08506394 -46.578125 23.45703125 C-45.72220616 14.5677027 -40.12818804 7.66933934 -33.47265625 2.078125 C-23.2508398 -5.53813039 -11.34402451 -5.35437957 0 0 Z " fill="#FBFBFB" transform="translate(505.3046875,160.3828125)"/>
<path d="M0 0 C6.579375 -0.0825 13.15875 -0.165 19.9375 -0.25 C23.02532837 -0.30462402 23.02532837 -0.30462402 26.17553711 -0.36035156 C27.8344621 -0.37205028 29.49339871 -0.38223929 31.15234375 -0.390625 C31.99156372 -0.41108887 32.83078369 -0.43155273 33.69543457 -0.45263672 C40.87749934 -0.45681294 46.71738388 1.47491068 52.4375 5.875 C56.37498564 11.22998048 56.96460601 17.55603406 56 24 C53.75445063 29.62832976 50.36724702 33.15207301 45 36 C41.625 37.25 41.625 37.25 39 38 C39.70125 38.680625 40.4025 39.36125 41.125 40.0625 C47.14368936 46.12222588 51.8805984 52.61737371 56.375 59.875 C57.19291016 61.174375 57.19291016 61.174375 58.02734375 62.5 C62 68.85226739 62 68.85226739 62 70 C57.63865294 71.16454817 54.326587 71.40051371 50 70 C45.74456863 65.82091725 42.99244318 60.26108207 40.14404297 55.07714844 C38.75212536 52.5499536 37.25655981 50.10833514 35.6875 47.6875 C35.29949219 47.05199219 34.91148437 46.41648437 34.51171875 45.76171875 C31.18993685 41.89059824 27.7514548 39.84472968 22.6953125 39.390625 C21.1727179 39.3215978 19.64888463 39.2788916 18.125 39.25 C15.44375 39.1675 12.7625 39.085 10 39 C10 49.23 10 59.46 10 70 C6.7 70 3.4 70 0 70 C0 46.9 0 23.8 0 0 Z " fill="#0D0D0D" transform="translate(673,762)"/>
<path d="M0 0 C6.414375 -0.0825 12.82875 -0.165 19.4375 -0.25 C21.44384521 -0.28641602 23.45019043 -0.32283203 25.51733398 -0.36035156 C27.13524308 -0.37205091 28.75316409 -0.38223977 30.37109375 -0.390625 C31.59753601 -0.4213208 31.59753601 -0.4213208 32.84875488 -0.45263672 C39.91413732 -0.45684794 45.85581657 1.43500826 51.375 5.9375 C51.91125 6.618125 52.4475 7.29875 53 8 C53.5775 8.680625 54.155 9.36125 54.75 10.0625 C57.13151949 15.65907081 56.77728255 21.66815236 54.875 27.375 C50.65986063 33.27619511 45.42932567 36.00703805 39 39 C39.44988281 39.30808594 39.89976562 39.61617187 40.36328125 39.93359375 C48.24603148 46.01547519 52.89266568 54.62440546 58 63 C58.60199219 63.95648437 59.20398438 64.91296875 59.82421875 65.8984375 C61 68 61 68 61 70 C57.04 70 53.08 70 49 70 C48.401875 68.845 47.80375 67.69 47.1875 66.5 C44.54390355 61.75663266 41.59992954 57.24685361 38.5625 52.75 C38.10834717 52.06486328 37.65419434 51.37972656 37.1862793 50.67382812 C32.34706981 43.41036733 32.34706981 43.41036733 24.83911133 39.52392578 C22.4170703 39.28715294 20.05912207 39.20588996 17.625 39.1875 C13.355625 39.0946875 13.355625 39.0946875 9 39 C9 49.23 9 59.46 9 70 C6.03 70 3.06 70 0 70 C0 46.9 0 23.8 0 0 Z " fill="#0A0A0A" transform="translate(637,664)"/>
<path d="M0 0 C4.29 0 8.58 0 13 0 C13 23.43 13 46.86 13 71 C9.7 71 6.4 71 3 71 C2.67 53.84 2.34 36.68 2 19 C-2.89591997 31.95317901 -2.89591997 31.95317901 -7.1875 45.0625 C-8.48480647 49.36183796 -9.76626408 53.60104444 -11.5703125 57.71875 C-12.8302935 60.61050967 -13.81693627 63.41125465 -14.6875 66.4375 C-15.06455078 67.73494141 -15.06455078 67.73494141 -15.44921875 69.05859375 C-15.63097656 69.69925781 -15.81273437 70.33992187 -16 71 C-18.97 71 -21.94 71 -25 71 C-27.52817441 66.33316643 -29.09053268 61.76612901 -30.5 56.6875 C-33.17614688 47.20012768 -36.35494646 37.92248274 -39.625 28.625 C-40.24237928 26.86725485 -40.85957493 25.10944519 -41.4765625 23.3515625 C-41.8799585 22.20421631 -41.8799585 22.20421631 -42.29150391 21.03369141 C-42.8744389 19.36041487 -43.43967263 17.6809821 -44 16 C-44.33 34.15 -44.66 52.3 -45 71 C-47.97 71 -50.94 71 -54 71 C-54 47.9 -54 24.8 -54 1 C-49.38 1 -44.76 1 -40 1 C-37.5741154 6.21565189 -35.88731283 11.50794932 -34.23046875 17.01171875 C-32.75669992 21.84732775 -31.16088786 26.64190823 -29.5625 31.4375 C-29.11233521 32.78908203 -29.11233521 32.78908203 -28.65307617 34.16796875 C-26.49311079 40.61458075 -24.22310378 47.01264131 -21.84765625 53.3828125 C-21 56 -21 56 -21 59 C-20.34 59 -19.68 59 -19 59 C-18.938125 57.989375 -18.87625 56.97875 -18.8125 55.9375 C-17.81234664 47.80581832 -14.49144879 39.91660235 -11.58984375 32.296875 C-9.12651939 25.77444804 -7.03796432 19.11802658 -4.87304688 12.4921875 C-4.53208984 11.45835937 -4.19113281 10.42453125 -3.83984375 9.359375 C-3.53425537 8.42577148 -3.22866699 7.49216797 -2.91381836 6.53027344 C-2 4 -2 4 0 0 Z " fill="#0C0C0C" transform="translate(303,761)"/>
<path d="M0 0 C6.414375 -0.12375 12.82875 -0.2475 19.4375 -0.375 C21.44384521 -0.42962402 23.45019043 -0.48424805 25.51733398 -0.54052734 C41.29708396 -0.79048747 41.29708396 -0.79048747 47.51000977 4.44433594 C53.11460607 10.29596426 54.38353089 14.33650627 54.27734375 22.3359375 C53.66438765 28.22376932 51.32676697 32.54687427 47.375 36.875 C39.18201976 42.03354311 30.84004098 42.40998294 21.375 42.1875 C15.744375 42.0946875 15.744375 42.0946875 10 42 C10 51.24 10 60.48 10 70 C6.7 70 3.4 70 0 70 C0 46.9 0 23.8 0 0 Z " fill="#0F0F0F" transform="translate(214,664)"/>
<path d="M0 0 C3.3 0 6.6 0 10 0 C13.14896262 12.28312591 15.98920235 24.62447305 18.75 37 C19.16518398 38.85420712 19.58054756 40.70837403 19.99609375 42.5625 C20.99945917 47.0412076 22.00041957 51.5204462 23 56 C27.0861194 42.23445124 31.01930705 28.43984613 34.68969727 14.55712891 C35.99159262 9.65060362 37.3017008 4.78837531 39 0 C42.96 0 46.92 0 51 0 C64.44949428 42.46664904 64.44949428 42.46664904 65 57 C65.66 57 66.32 57 67 57 C67.11988281 55.6903125 67.23976563 54.380625 67.36328125 53.03125 C67.88458766 48.36587602 68.91588225 44.00990512 70.1875 39.5 C72.65790913 30.47495599 74.84414125 21.39542525 76.9440918 12.27734375 C77.30241089 10.74980469 77.30241089 10.74980469 77.66796875 9.19140625 C77.87703857 8.28592041 78.0861084 7.38043457 78.30151367 6.44750977 C79 4 79 4 81 0 C83.97 0 86.94 0 90 0 C87.81081921 8.96632557 85.49990532 17.86905194 82.92578125 26.734375 C82.10030923 29.64616659 81.34313494 32.56026634 80.625 35.5 C79.15727229 41.48443676 77.55415455 47.42944424 75.9375 53.375 C75.67984863 54.32697266 75.42219727 55.27894531 75.15673828 56.25976562 C73.89341554 60.8878606 72.58375132 65.46850101 71 70 C68.03 70 65.06 70 62 70 C59.61243422 63.1645325 57.53252308 56.3560201 55.84375 49.31640625 C54.85414104 45.42669324 53.71645454 41.59347613 52.5625 37.75 C50.81618878 31.90362501 49.17891249 26.04181792 47.6875 20.125 C47.51613525 19.45307617 47.34477051 18.78115234 47.16821289 18.08886719 C46.47866534 15.30483243 46 12.8816743 46 10 C45.34 10 44.68 10 44 10 C43.87238281 11.01191406 43.74476563 12.02382813 43.61328125 13.06640625 C43.0311124 16.80044465 42.19677694 20.29847359 41.1875 23.9375 C39.71144248 29.31591839 38.32185156 34.70671736 37 40.125 C34.50640999 50.24632999 31.34497549 60.13232231 28 70 C24.7 70 21.4 70 18 70 C17.66226562 68.68644531 17.32453125 67.37289062 16.9765625 66.01953125 C16.52621312 64.28380967 16.07568277 62.54813504 15.625 60.8125 C15.40328125 59.94818359 15.1815625 59.08386719 14.953125 58.19335938 C14.73398437 57.35224609 14.51484375 56.51113281 14.2890625 55.64453125 C14.09006348 54.87471924 13.89106445 54.10490723 13.68603516 53.31176758 C13.02670015 50.95036925 13.02670015 50.95036925 12.00268555 48.55615234 C10.94915378 45.87037742 10.28873514 43.27332516 9.66796875 40.45703125 C9.42900879 39.39097656 9.19004883 38.32492187 8.94384766 37.2265625 C8.56945557 35.53660156 8.56945557 35.53660156 8.1875 33.8125 C6.17696899 24.8878862 4.02576727 16.04265602 1.47338867 7.25708008 C0 2.1717878 0 2.1717878 0 0 Z " fill="#0F0F0F" transform="translate(462,664)"/>
<path d="M0 0 C10.13391401 6.8195922 15.41402089 15.28167463 18.02734375 27.203125 C19.54214402 40.0016416 16.12740129 50.66214695 8.203125 60.73046875 C0.04453661 70.00225771 -10.00756368 73.91106362 -22.0625 75.6484375 C-33.3458505 76.13409104 -43.69336006 70.95377408 -51.875 63.4609375 C-61.06026477 53.77319654 -64.39197046 42.89038171 -64.2421875 29.83203125 C-63.43280791 18.9347321 -57.70061921 9.32314496 -49.6171875 2.09765625 C-33.93264957 -9.5971741 -16.55699758 -10.008172 0 0 Z M-47.28125 14.0078125 C-49.93595596 17.45341238 -51.48299927 21.14654496 -52.97265625 25.203125 C-53.30265625 25.863125 -53.63265625 26.523125 -53.97265625 27.203125 C-54.98686123 38.61293098 -52.09625625 47.29429191 -44.97265625 56.203125 C-38.74249345 62.67476697 -31.53636481 65.27079976 -22.72265625 65.515625 C-13.83444199 65.4082506 -6.3551444 61.26312953 0.02734375 55.203125 C6.29777803 47.70919135 8.55755333 40.39561372 8.26171875 30.70703125 C7.39368731 21.43356205 2.97344544 15.29824945 -3.97265625 9.203125 C-19.03613756 -0.29578024 -34.97698534 0.93297773 -47.28125 14.0078125 Z " fill="#0D0D0D" transform="translate(512.97265625,153.796875)"/>
<path d="M0 0 C8.64379119 5.83577993 15.78482422 13.56226311 18.375 23.875 C18.73981394 27.08707274 18.84990691 30.26863723 18.875 33.5 C18.88144531 34.28745605 18.88789063 35.07491211 18.89453125 35.88623047 C18.66439074 46.49261007 14.49630313 56.36485718 7.265625 64.14453125 C-2.71498212 73.4196127 -12.79520564 76.35481565 -26.296875 76.125 C-30.62544083 75.79984952 -33.78273187 74.80394355 -37.625 72.875 C-38.42421875 72.54628906 -39.2234375 72.21757812 -40.046875 71.87890625 C-51.62909055 66.80729974 -57.21424195 57.48079167 -61.72265625 46.10546875 C-64.3563702 36.67654479 -64.06898911 26.01268489 -59.5625 17.25 C-53.05155003 5.91806495 -45.53511274 -1.52102599 -32.94140625 -5.3984375 C-21.04880338 -8.00388407 -10.35472846 -6.12193137 0 0 Z M-39.625 8.875 C-40.27082031 9.2978125 -40.91664063 9.720625 -41.58203125 10.15625 C-47.35694537 14.48429022 -51.70983124 20.68393812 -52.97509766 27.86083984 C-54.07214205 37.88667079 -52.67408852 45.59195553 -46.625 53.875 C-46.24214844 54.47699219 -45.85929687 55.07898438 -45.46484375 55.69921875 C-41.57489852 61.23437378 -34.84295333 63.80234889 -28.625 65.875 C-20.35106182 66.57404464 -13.83201533 66.09374068 -6.625 61.875 C-5.573125 61.2975 -4.52125 60.72 -3.4375 60.125 C2.50555587 55.3705553 7.47290269 48.54661565 8.69213867 40.88110352 C8.84814705 38.76456474 8.89419177 36.68462959 8.875 34.5625 C8.86533203 33.44319092 8.86533203 33.44319092 8.85546875 32.30126953 C8.57355903 23.75309908 5.81620178 17.87132554 -0.4375 12 C-12.10760138 2.62855495 -26.78745437 0.20908051 -39.625 8.875 Z " fill="#0D0D0D" transform="translate(343.625,333.125)"/>
<path d="M0 0 C7.60309558 5.34932082 14.80514175 13.6789343 16.828125 22.921875 C18.64011599 36.11789637 17.14880579 47.67020322 9.4375 58.9140625 C2.37578646 67.45297122 -6.88141463 72.76958272 -17.8125 74.5390625 C-29.88557859 75.52759645 -40.38980146 73.48575256 -49.78125 65.5234375 C-57.66226858 57.82428858 -63.86339588 48.6484189 -64.05419922 37.38256836 C-64.09913516 24.35775493 -62.27354431 14.3621406 -52.9609375 4.59765625 C-37.35041625 -9.80009542 -17.84019215 -11.31737189 0 0 Z M-47.578125 13.49609375 C-52.54254981 19.79802136 -54.16303628 25.43569267 -54.125 33.4765625 C-54.14111328 34.15396484 -54.15722656 34.83136719 -54.17382812 35.52929688 C-54.18345214 45.56714869 -48.56277311 52.64679335 -41.8125 59.5390625 C-34.04504918 64.97627808 -25.01301081 65.669115 -15.8125 64.5390625 C-7.42734431 61.55281813 -1.23063624 57.27457067 3.1875 49.5390625 C3.59613281 48.97058594 4.00476563 48.40210938 4.42578125 47.81640625 C8.65047432 41.2107865 7.9401409 33.04266419 7.1875 25.5390625 C5.07201892 17.35995651 0.31483676 11.68472555 -6.75 7.2890625 C-21.18849328 -0.81006295 -36.36070819 1.06262954 -47.578125 13.49609375 Z " fill="#0C0C0C" transform="translate(681.8125,334.4609375)"/>
<path d="M0 0 C5.18048 3.98841256 9.63403018 8.82968157 10.81640625 15.3984375 C11.71262216 23.82002188 9.70720333 28.95105737 5.19140625 35.8984375 C4.73765625 36.3934375 4.28390625 36.8884375 3.81640625 37.3984375 C3.15640625 37.3984375 2.49640625 37.3984375 1.81640625 37.3984375 C1.8321167 38.42783447 1.8321167 38.42783447 1.84814453 39.47802734 C1.88962499 42.57646039 1.91570694 45.67483511 1.94140625 48.7734375 C1.95816406 49.85367188 1.97492188 50.93390625 1.9921875 52.046875 C2.00185547 53.59375 2.00185547 53.59375 2.01171875 55.171875 C2.0274292 56.60152588 2.0274292 56.60152588 2.04345703 58.06005859 C1.81640625 60.3984375 1.81640625 60.3984375 -0.18359375 62.3984375 C-4.16514711 62.85438696 -8.17894504 62.72247163 -12.18359375 62.7109375 C-13.86195313 62.73510742 -13.86195313 62.73510742 -15.57421875 62.75976562 C-17.17523438 62.76073242 -17.17523438 62.76073242 -18.80859375 62.76171875 C-19.79085938 62.76469971 -20.773125 62.76768066 -21.78515625 62.77075195 C-22.97238281 62.5864563 -22.97238281 62.5864563 -24.18359375 62.3984375 C-26.38551599 59.09555414 -26.42319343 58.12381023 -26.37890625 54.29296875 C-26.37246094 53.31005859 -26.36601562 52.32714844 -26.359375 51.31445312 C-26.34261719 50.29029297 -26.32585937 49.26613281 -26.30859375 48.2109375 C-26.29957031 47.17517578 -26.29054688 46.13941406 -26.28125 45.07226562 C-26.25767235 42.51409065 -26.22476405 39.95638002 -26.18359375 37.3984375 C-27.17359375 37.0684375 -28.16359375 36.7384375 -29.18359375 36.3984375 C-30.53515625 34.4375 -30.53515625 34.4375 -31.80859375 32.0234375 C-32.23398437 31.23195313 -32.659375 30.44046875 -33.09765625 29.625 C-36.01240684 23.64871283 -36.10603092 17.43056681 -33.99609375 11.1484375 C-32.41868991 7.41598898 -30.27512006 5.04831719 -27.18359375 2.3984375 C-25.91515625 1.2846875 -25.91515625 1.2846875 -24.62109375 0.1484375 C-17.93767376 -4.64991531 -6.92936079 -4.07949842 0 0 Z " fill="#0C0C0C" transform="translate(502.18359375,386.6015625)"/>
<path d="M0 0 C9.68925003 6.66034161 14.69114476 14.90732645 16.890625 26.46484375 C18.56896228 38.59120863 16.1206925 47.87201882 9.27734375 58.05078125 C2.77813995 66.525743 -5.40662416 71.10432181 -15.67578125 73.59765625 C-27.9067724 75.01925667 -38.37414759 73.74774186 -48.60546875 66.53125 C-56.81035597 59.78278585 -63.23238809 50.3559704 -64.67578125 39.59765625 C-65.44503355 27.34879267 -63.64088757 17.79803384 -56.67578125 7.59765625 C-54.17578125 5.34765625 -54.17578125 5.34765625 -51.67578125 3.59765625 C-50.91265625 2.77265625 -50.14953125 1.94765625 -49.36328125 1.09765625 C-35.44643657 -11.84824578 -15.00545418 -9.30090135 0 0 Z M-48.5703125 13.8046875 C-50.32546013 16.65137571 -51.51193953 19.45528362 -52.67578125 22.59765625 C-53.06765625 23.36078125 -53.45953125 24.12390625 -53.86328125 24.91015625 C-56.15056403 32.47578392 -54.79341503 40.4632958 -51.67578125 47.59765625 C-47.33081951 54.91616112 -41.55105212 60.24647716 -33.67578125 63.59765625 C-24.67529812 65.73209918 -16.69037669 65.37726953 -8.67578125 60.59765625 C-5.87087105 58.75898602 -3.10721766 56.91646481 -0.67578125 54.59765625 C-0.67578125 53.93765625 -0.67578125 53.27765625 -0.67578125 52.59765625 C-0.01578125 52.59765625 0.64421875 52.59765625 1.32421875 52.59765625 C2.13920437 50.99475095 2.95111802 49.39028347 3.76171875 47.78515625 C4.21417969 46.89183594 4.66664063 45.99851562 5.1328125 45.078125 C8.71981459 37.61010426 8.2430752 29.4056591 5.63671875 21.66015625 C3.87577831 17.3535756 1.98818754 14.56372623 -1.67578125 11.59765625 C-2.56265625 10.75203125 -3.44953125 9.90640625 -4.36328125 9.03515625 C-11.43389981 3.3786614 -19.20754125 1.80386109 -28.13671875 2.0859375 C-36.28831691 3.26459021 -43.58538126 7.18247679 -48.5703125 13.8046875 Z " fill="#0B0B0B" transform="translate(513.67578125,520.40234375)"/>
<path d="M0 0 C3.63 0 7.26 0 11 0 C14.57840244 7.51341543 17.85484647 15.02330595 20.78515625 22.8125 C22.73417397 27.92632141 24.87354042 32.95801722 27 38 C28.20300193 40.87605098 29.40241005 43.75352932 30.59765625 46.6328125 C31.68142587 49.23506713 32.77397005 51.8330693 33.87109375 54.4296875 C34.5183949 55.97388887 35.16553108 57.51815941 35.8125 59.0625 C36.12687012 59.80137451 36.44124023 60.54024902 36.76513672 61.30151367 C38.03592989 64.34866543 39 66.66424225 39 70 C35.37 70 31.74 70 28 70 C27.01602415 67.4392555 26.03770033 64.87658508 25.0625 62.3125 C24.64581055 61.2306543 24.64581055 61.2306543 24.22070312 60.12695312 C23.95322266 59.42119141 23.68574219 58.71542969 23.41015625 57.98828125 C23.04096069 57.02208862 23.04096069 57.02208862 22.66430664 56.03637695 C21.91682727 53.74504089 21.47267432 51.36337161 21 49 C11.1 49 1.2 49 -9 49 C-9.33 50.65 -9.66 52.3 -10 54 C-10.61228556 55.84480844 -11.25948777 57.67832187 -11.9375 59.5 C-12.27652344 60.4178125 -12.61554688 61.335625 -12.96484375 62.28125 C-13.94896101 64.86595043 -14.96405394 67.43568508 -16 70 C-19.3 70 -22.6 70 -26 70 C-23.30259722 59.21038886 -19.2573661 49.03018 -14.87280273 38.83740234 C-12.69005362 33.73314336 -10.8079466 28.6295667 -9.140625 23.33203125 C-6.43635932 15.43224142 -3.14757868 7.73143113 0 0 Z " fill="#101010" transform="translate(485,762)"/>
<path d="M0 0 C3.63 0 7.26 0 11 0 C14.19169428 6.16577305 16.90552266 12.43750846 19.5 18.875 C19.87769531 19.80441406 20.25539063 20.73382812 20.64453125 21.69140625 C21.7677951 24.45903573 22.88475756 27.2291297 24 30 C24.52895874 31.30868042 24.52895874 31.30868042 25.06860352 32.64379883 C27.10993386 37.71298144 29.05827862 42.8063803 30.9375 47.9375 C33.069398 53.71772311 35.41733983 59.31925443 38.1171875 64.86328125 C39 67 39 67 39 70 C35.37 70 31.74 70 28 70 C27.74605469 69.2265625 27.49210937 68.453125 27.23046875 67.65625 C26.88628906 66.6146875 26.54210937 65.573125 26.1875 64.5 C25.85105469 63.4790625 25.51460938 62.458125 25.16796875 61.40625 C23.85500156 57.5771283 22.42133693 53.79023181 21 50 C6.15 49.505 6.15 49.505 -9 49 C-10.97286326 55.55976585 -10.97286326 55.55976585 -12.9140625 62.12890625 C-13.14867187 62.93199219 -13.38328125 63.73507812 -13.625 64.5625 C-13.86476563 65.38878906 -14.10453125 66.21507812 -14.3515625 67.06640625 C-15 69 -15 69 -16 70 C-17.68608966 70.07205511 -19.37500659 70.08386068 -21.0625 70.0625 C-22.44115234 70.04896484 -22.44115234 70.04896484 -23.84765625 70.03515625 C-24.55792969 70.02355469 -25.26820313 70.01195312 -26 70 C-25.00724095 65.83940042 -23.60842929 61.84257984 -22.1875 57.8125 C-21.8152832 56.73645508 -21.8152832 56.73645508 -21.43554688 55.63867188 C-20.10846876 51.86679847 -18.67272646 48.19839137 -17.015625 44.55859375 C-14.89704346 39.88294649 -13.21097518 35.10789169 -11.5625 30.25 C-8.03975369 20.03081945 -4.37132104 9.89298973 0 0 Z " fill="#101010" transform="translate(349,762)"/>
<path d="M0 0 C3.63 0 7.26 0 11 0 C14.00256176 5.80450693 16.55938613 11.66579581 18.9375 17.75 C21.44828305 24.13010603 24.01770749 30.47987988 26.66381836 36.80517578 C29.06632033 42.549583 31.44396425 48.30401722 33.8125 54.0625 C34.56563477 55.87524414 34.56563477 55.87524414 35.33398438 57.72460938 C36.04458008 59.45614258 36.04458008 59.45614258 36.76953125 61.22265625 C37.19854736 62.26172119 37.62756348 63.30078613 38.06958008 64.37133789 C39 67 39 67 39 70 C35.37 70 31.74 70 28 70 C27.2054739 67.81353696 26.4145142 65.62577779 25.625 63.4375 C25.18414062 62.21933594 24.74328125 61.00117187 24.2890625 59.74609375 C23.07015982 56.2038887 22.0291209 52.60192317 21 49 C11.1 49 1.2 49 -9 49 C-9.66 51.97 -10.32 54.94 -11 58 C-11.81345696 60.21112393 -12.681969 62.40345535 -13.625 64.5625 C-14.07101562 65.59503906 -14.51703125 66.62757813 -14.9765625 67.69140625 C-15.31429688 68.45324219 -15.65203125 69.21507812 -16 70 C-19.3 70 -22.6 70 -26 70 C-25.28277532 65.54110923 -23.79249778 61.45030285 -22.1875 57.25 C-21.91615234 56.53191162 -21.64480469 55.81382324 -21.36523438 55.07397461 C-20.0092817 51.51862483 -18.6068335 48.01346308 -17 44.5625 C-15.13239813 40.51347791 -13.69605366 36.33785221 -12.25 32.125 C-9.69528693 24.68718548 -6.75689451 17.45855103 -3.62792969 10.24462891 C-3.30083008 9.48714355 -2.97373047 8.7296582 -2.63671875 7.94921875 C-2.34498779 7.28237061 -2.05325684 6.61552246 -1.75268555 5.9284668 C-0.83382757 3.6945706 -0.83382757 3.6945706 0 0 Z " fill="#0F0F0F" transform="translate(291,664)"/>
<path d="M0 0 C10 0 10 0 12.8125 2.75390625 C13.57752074 4.00215978 14.30513919 5.27387202 15 6.5625 C15.83110127 7.9471732 16.6631599 9.33127214 17.49609375 10.71484375 C17.90843262 11.42753418 18.32077148 12.14022461 18.74560547 12.87451172 C20.71718364 16.21522008 22.89015875 19.41276186 25.0625 22.625 C25.89208019 23.87099183 26.72150844 25.11708483 27.55078125 26.36328125 C30.56329776 30.85991396 33.67195227 35.28800884 36.796875 39.70703125 C39.69217654 44.03458302 42.32113787 48.53522979 45 53 C45.33 35.51 45.66 18.02 46 0 C48.97 0 51.94 0 55 0 C55 23.1 55 46.2 55 70 C51.7 70 48.4 70 45 70 C41 65.61904762 41 65.61904762 41 62 C40.34 62 39.68 62 39 62 C37.49402896 59.80016214 36.11220276 57.60015636 34.75 55.3125 C30.53300918 48.39014982 26.1372614 41.60852784 21.625 34.875 C21.03041992 33.98723877 20.43583984 33.09947754 19.82324219 32.18481445 C19.25508789 31.33749756 18.68693359 30.49018066 18.1015625 29.6171875 C17.56692383 28.81893555 17.03228516 28.02068359 16.48144531 27.19824219 C15.56198696 25.83390418 14.63553469 24.47421846 13.69824219 23.12207031 C11 19.20618415 11 19.20618415 11 17 C10.34 17 9.68 17 9 17 C9 34.49 9 51.98 9 70 C6.03 70 3.06 70 0 70 C0 46.9 0 23.8 0 0 Z " fill="#0B0B0B" transform="translate(396,762)"/>
<path d="M0 0 C5.878125 -0.12375 11.75625 -0.2475 17.8125 -0.375 C19.64401611 -0.42962402 21.47553223 -0.48424805 23.36254883 -0.54052734 C33.88467852 -0.72309006 41.93486275 0.27392657 49.94775391 7.83886719 C57.20241692 15.60242918 58.18001964 23.64669353 58.1875 33.8125 C58.19974609 34.67681641 58.21199219 35.54113281 58.22460938 36.43164062 C58.24689532 46.2746011 55.97238653 54.03681796 50 62 C36.82919391 74.95489123 16.52065684 70 0 70 C0 46.9 0 23.8 0 0 Z M10 8 C10 25.82 10 43.64 10 62 C26.10136056 63.33206992 26.10136056 63.33206992 41 58 C48.70534171 49.85481849 49.48328187 40.21683796 49.3203125 29.44921875 C48.74285225 23.23095773 46.79697793 18.21979627 42.875 13.375 C41.11872074 11.80287878 41.11872074 11.80287878 39 12 C39 11.34 39 10.68 39 10 C29.68776384 6.9926892 29.68776384 6.9926892 10 8 Z " fill="#0D0D0D" transform="translate(707,664)"/>
<path d="M0 0 C0.63164063 0.32871094 1.26328125 0.65742187 1.9140625 0.99609375 C6.95270174 4.09432086 9.87406036 8.52350111 12 14 C12 15.32 12 16.64 12 18 C9.03 18.33 6.06 18.66 3 19 C2.46375 17.7625 1.9275 16.525 1.375 15.25 C-0.67154401 11.13506275 -2.89083807 9.18572443 -7 7 C-13.54043933 4.81985356 -23.1570069 4.67111491 -29.5625 7.5 C-34.94079388 10.82774611 -38.10061264 15.71065035 -40.375 21.5 C-42.30346513 31.90140237 -42.46223988 41.75263732 -36.6484375 50.85546875 C-33.36792281 55.12324733 -30.05897641 57.32997878 -25 59 C-22.3843676 59.24161588 -19.92557033 59.38025147 -17.3125 59.375 C-16.60714111 59.37556396 -15.90178223 59.37612793 -15.17504883 59.37670898 C-9.1334061 59.2503379 -4.38609503 57.73144127 1 55 C1.99 54.67 2.98 54.34 4 54 C4 49.38 4 44.76 4 40 C-2.6 40 -9.2 40 -16 40 C-16 37.36 -16 34.72 -16 32 C-6.43 32 3.14 32 13 32 C13.103125 36.2075 13.20625 40.415 13.3125 44.75 C13.35802002 46.0709668 13.40354004 47.39193359 13.45043945 48.75292969 C13.46292725 49.79868164 13.47541504 50.84443359 13.48828125 51.921875 C13.51446533 52.99018555 13.54064941 54.05849609 13.56762695 55.15917969 C13 58 13 58 10.62353516 60.29150391 C8.14939446 61.90271148 5.713275 63.32683215 3.0625 64.625 C2.24910156 65.02976562 1.43570313 65.43453125 0.59765625 65.8515625 C-4.92419788 68.29280327 -9.71332971 69.36089738 -15.75 69.3125 C-16.45229736 69.30903564 -17.15459473 69.30557129 -17.87817383 69.30200195 C-26.25667016 69.12783085 -34.48628533 67.35589248 -40.67578125 61.3828125 C-46.87417406 54.77296321 -51.50638144 47.21421314 -52 38 C-52.05027344 37.26394531 -52.10054687 36.52789063 -52.15234375 35.76953125 C-52.62691006 23.82944283 -49.12594064 12.8429354 -41 4 C-30.19415941 -4.54415303 -12.39763268 -6.46036977 0 0 Z " fill="#0E0E0E" transform="translate(581,764)"/>
<path d="M0 0 C0.80824219 0.53496094 1.61648438 1.06992187 2.44921875 1.62109375 C3.56296875 2.32234375 4.67671875 3.02359375 5.82421875 3.74609375 C14.09292452 12.80229531 15.86371779 23.00146554 15.6640625 34.82421875 C15.08992782 44.97074438 11.12836467 53.3358121 3.82421875 60.37109375 C-4.3205185 66.9868004 -13.4595162 68.53934635 -23.73046875 68.07421875 C-31.61658564 67.1388511 -37.42268843 63.65414412 -42.55078125 57.62109375 C-43.23140625 56.89921875 -43.91203125 56.17734375 -44.61328125 55.43359375 C-51.85130473 44.92678548 -52.58359405 32.96291823 -51.55078125 20.62109375 C-50.76188771 17.13285362 -49.55653319 14.56482968 -47.55078125 11.62109375 C-46.76960937 10.45513672 -46.76960937 10.45513672 -45.97265625 9.265625 C-35.17286927 -5.64489171 -15.9726887 -9.43543548 0 0 Z M-33.55078125 7.62109375 C-33.55078125 8.28109375 -33.55078125 8.94109375 -33.55078125 9.62109375 C-34.54078125 9.95109375 -35.53078125 10.28109375 -36.55078125 10.62109375 C-42.94728152 17.75634476 -42.39358016 27.68216565 -42.03125 36.65625 C-41.44731892 44.54152582 -38.82296322 49.77835202 -33.05078125 55.12109375 C-26.82649754 60.17098431 -20.26886821 60.28732968 -12.55078125 59.62109375 C-5.95855868 57.98793915 -1.21471603 53.91005738 2.76171875 48.55859375 C5.71764683 43.43904821 5.99993317 38.83296631 6.01171875 33.05859375 C6.01522339 31.87221313 6.01522339 31.87221313 6.01879883 30.66186523 C5.80387895 22.94791944 4.13526331 15.15346143 -1.55078125 9.62109375 C-11.64828145 2.42611385 -22.69575989 0.81009996 -33.55078125 7.62109375 Z " fill="#0E0E0E" transform="translate(609.55078125,667.37890625)"/>
<path d="M0 0 C3.42803778 0.38954975 5.69128952 1.72497297 8.75 3.3125 C9.68199219 3.76109375 10.61398437 4.2096875 11.57421875 4.671875 C22.7764846 10.11253891 32.79727798 16.85911625 42.75 24.3125 C43.49894531 24.86550781 44.24789062 25.41851562 45.01953125 25.98828125 C51.65416761 30.99713284 57.7083091 36.61725571 63.75 42.3125 C64.77673828 43.27542969 64.77673828 43.27542969 65.82421875 44.2578125 C70.29247819 48.57545646 74.01808186 53.3551759 77.75 58.3125 C80.30431636 61.86977693 80.30431636 61.86977693 83.75 64.3125 C83.99621094 63.75046875 84.24242187 63.1884375 84.49609375 62.609375 C85.97097424 59.90772475 87.75431649 57.84854048 89.8125 55.5625 C90.52535156 54.76328125 91.23820313 53.9640625 91.97265625 53.140625 C92.55917969 52.53734375 93.14570312 51.9340625 93.75 51.3125 C94.08 51.3125 94.41 51.3125 94.75 51.3125 C94.74214478 52.81647339 94.74214478 52.81647339 94.73413086 54.35083008 C94.71583699 58.12116581 94.70448016 61.89149774 94.69506836 65.66186523 C94.69008328 67.28426781 94.6832928 68.906666 94.67456055 70.52905273 C94.6274737 79.51156119 94.65506908 88.37899939 95.75 97.3125 C92.88171769 95.95844387 90.36739311 94.4146051 87.80078125 92.5546875 C77.52671903 85.23915345 67.36472664 79.23500258 55.75 74.3125 C55.75 73.6525 55.75 72.9925 55.75 72.3125 C64.165 71.3225 64.165 71.3225 72.75 70.3125 C54.26693429 43.32722407 28.23814719 24.79406706 -0.84375 10.546875 C-3.25 9.3125 -3.25 9.3125 -4.25 8.3125 C-4.4375 5.375 -4.4375 5.375 -4.25 2.3125 C-2.25 0.3125 -2.25 0.3125 0 0 Z " fill="#0C0C0C" transform="translate(559.25,195.6875)"/>
<path d="M0 0 C3.375 -0.125 3.375 -0.125 7 0 C7.99 0.99 7.99 0.99 9 2 C8.82421261 8.23246187 6.33094449 12.86216107 3.375 18.25 C2.92278076 19.08974365 2.47056152 19.9294873 2.00463867 20.79467773 C-1.39558522 27.04662444 -4.99822614 33.11222268 -9 39 C-9.53882813 39.82371094 -10.07765625 40.64742188 -10.6328125 41.49609375 C-14.50018893 47.26118279 -18.86908159 52.34050189 -23.6015625 57.4140625 C-25.59569507 59.56408817 -27.49416952 61.75217821 -29.375 64 C-36.04654228 71.66517624 -44.28983258 79.70689826 -53 85 C-53.66 85 -54.32 85 -55 85 C-50.96476648 89.81123996 -46.95532767 94.13242719 -42 98 C-45.50139116 99.16713039 -48.21301566 99.09664392 -51.90625 99.0625 C-52.58619019 99.05871338 -53.26613037 99.05492676 -53.9666748 99.05102539 C-56.86555556 99.03478145 -59.76429313 99.0069751 -62.66308594 98.97949219 C-71.16118597 98.90586524 -79.54548976 98.98726722 -88 100 C-86.6552978 96.51308042 -85.25373156 93.67932864 -83 90.6875 C-82.484375 89.99011719 -81.96875 89.29273438 -81.4375 88.57421875 C-80.963125 88.05472656 -80.48875 87.53523437 -80 87 C-79.34 87 -78.68 87 -78 87 C-77.57763062 85.90292725 -77.57763062 85.90292725 -77.14672852 84.78369141 C-76.10187094 82.2472924 -74.9465367 79.87714465 -73.65234375 77.4609375 C-72.99202148 76.21957031 -72.99202148 76.21957031 -72.31835938 74.953125 C-71.63483398 73.67695313 -71.63483398 73.67695313 -70.9375 72.375 C-70.02783946 70.67560611 -69.12019727 68.97512986 -68.21484375 67.2734375 C-67.81386475 66.52497559 -67.41288574 65.77651367 -66.99975586 65.00537109 C-65.88294782 62.88261612 -65.88294782 62.88261612 -65 60 C-64.34 60 -63.68 60 -63 60 C-61.7017874 65.76081841 -60.74293028 71.08739655 -61 77 C-60.01 77 -59.02 77 -58 77 C-57.505 75.515 -57.505 75.515 -57 74 C-55.0390625 72.2109375 -55.0390625 72.2109375 -52.625 70.375 C-51.83351563 69.76398438 -51.04203125 69.15296875 -50.2265625 68.5234375 C-48 67 -48 67 -45 66 C-44.505 64.515 -44.505 64.515 -44 63 C-42.58423359 61.82019466 -41.16497191 60.64427845 -39.7265625 59.4921875 C-36.45167424 56.66185421 -33.78528104 53.30025348 -31 50 C-30.25878906 49.16984375 -29.51757812 48.3396875 -28.75390625 47.484375 C-16.37436627 33.302374 -7.59886821 17.1358316 0 0 Z " fill="#0A0A0A" transform="translate(653,433)"/>
<path d="M0 0 C-1.53319408 3.44968669 -3.64129144 6.06948331 -6 9 C-7.00041323 10.66641866 -8.00035683 12.33311928 -9 14 C-10.2665185 15.8363168 -11.53765531 17.66945377 -12.8125 19.5 C-16.99934618 25.72222612 -20.06435014 32.10567079 -23 39 C-23.66 39 -24.32 39 -25 39 C-25.99 31.08 -25.99 31.08 -27 23 C-27.99 23 -28.98 23 -30 23 C-30 23.66 -30 24.32 -30 25 C-31.6171875 26.41015625 -31.6171875 26.41015625 -33.875 28.0625 C-41.03711288 33.48765952 -47.91759243 39.25983155 -53.55078125 46.296875 C-55 48 -55 48 -57.37109375 50.3359375 C-67.52595781 60.62660212 -75.15075798 73.28997464 -81.609375 86.140625 C-82.04958984 87.00929199 -82.48980469 87.87795898 -82.94335938 88.77294922 C-83.80037042 90.47960537 -84.64087474 92.19467252 -85.46289062 93.91845703 C-88.37601187 99.74349176 -88.37601187 99.74349176 -91.6796875 101.1015625 C-94 101 -94 101 -95.875 100 C-97.65209122 96.84072671 -96.71335934 94.48871758 -96 91 C-94.93379412 88.41939203 -93.84551156 86.02645132 -92.5625 83.5625 C-92.03994629 82.53793701 -92.03994629 82.53793701 -91.50683594 81.49267578 C-87.46054743 73.71804682 -82.78920198 66.33320615 -78 59 C-77.30390625 57.91976562 -76.6078125 56.83953125 -75.890625 55.7265625 C-74.35252094 53.50838764 -72.92749748 51.8450377 -71 50 C-69.86380493 48.55037181 -68.74020507 47.09083723 -67.625 45.625 C-59.97524142 36.01016582 -51.11253786 27.55124906 -41.4375 20 C-38.7804368 17.81984558 -36.39457041 15.46298671 -34 13 C-34.68707031 12.38511719 -35.37414062 11.77023438 -36.08203125 11.13671875 C-36.98308594 10.32847656 -37.88414062 9.52023438 -38.8125 8.6875 C-39.70582031 7.88699219 -40.59914063 7.08648437 -41.51953125 6.26171875 C-43.40047646 4.54665217 -45.21076895 2.80741891 -47 1 C-45.95658447 1.00523682 -44.91316895 1.01047363 -43.83813477 1.01586914 C-39.92994053 1.03410607 -36.02174997 1.04549969 -32.11352539 1.05493164 C-30.42894862 1.05992943 -28.74437612 1.06672989 -27.05981445 1.07543945 C-24.62450094 1.08770622 -22.18924526 1.09327398 -19.75390625 1.09765625 C-19.01290176 1.10281754 -18.27189728 1.10797882 -17.50843811 1.11329651 C-12.90349041 1.11377954 -8.42601863 0.78834712 -3.85630798 0.21531677 C-2 0 -2 0 0 0 Z " fill="#0B0B0B" transform="translate(415,203)"/>
<path d="M0 0 C3.25312496 1.54243373 5.96764957 3.43345016 8.82324219 5.63134766 C17.92682085 12.61997759 28.034864 19.34495467 39 23 C39 23.66 39 24.32 39 25 C37.45998293 25.34087334 35.91787594 25.67230953 34.375 26 C33.51648438 26.185625 32.65796875 26.37125 31.7734375 26.5625 C28.80730995 27.03039618 25.99792667 27.07033259 23 27 C35.16673429 45.34727982 51.87035876 62.00045629 71 73 C71.60070312 73.34627441 72.20140625 73.69254883 72.8203125 74.04931641 C81.78816166 79.200917 90.87193761 84.13899417 100 89 C100.1875 91.875 100.1875 91.875 100 95 C97 97 97 97 94.375 96.875 C67.58342969 89.92903733 43.67174287 67.69140048 25.3125 48 C24.83135742 47.48445557 24.35021484 46.96891113 23.85449219 46.43774414 C20.13849097 42.35718168 16.75912009 38.27736026 15 33 C14.01 33 13.02 33 12 33 C11.75378906 33.56203125 11.50757813 34.1240625 11.25390625 34.703125 C9.77902576 37.40477525 7.99568351 39.46395952 5.9375 41.75 C5.22464844 42.54921875 4.51179688 43.3484375 3.77734375 44.171875 C3.19082031 44.77515625 2.60429687 45.3784375 2 46 C1.67 46 1.34 46 1 46 C1.00523682 44.99735107 1.01047363 43.99470215 1.01586914 42.96166992 C1.03416301 39.19133419 1.04551984 35.42100226 1.05493164 31.65063477 C1.05991672 30.02823219 1.0667072 28.405834 1.07543945 26.78344727 C1.1225263 17.80093881 1.09493092 8.93350061 0 0 Z " fill="#0C0C0C" transform="translate(325,443)"/>
<path d="M0 0 C16.5 0 33 0 50 0 C50 2.64 50 5.28 50 8 C36.47 8 22.94 8 9 8 C9 15.26 9 22.52 9 30 C21.87 30 34.74 30 48 30 C48 32.64 48 35.28 48 38 C35.46 38 22.92 38 10 38 C10 45.59 10 53.18 10 61 C23.86 61 37.72 61 52 61 C52 63.97 52 66.94 52 70 C34.84 70 17.68 70 0 70 C0 46.9 0 23.8 0 0 Z " fill="#0C0C0C" transform="translate(608,762)"/>
<path d="M0 0 C5.56909926 3.25637609 9.05511997 7.55057324 11.25 13.625 C11.25 15.275 11.25 16.925 11.25 18.625 C7.95 18.625 4.65 18.625 1.25 18.625 C0.899375 17.3875 0.54875 16.15 0.1875 14.875 C-1.22905129 11.24347761 -2.72927663 9.00244024 -6.390625 7.25 C-12.20109858 5.7108017 -19.29325611 5.25823779 -24.953125 7.49609375 C-26.7518539 8.68796994 -28.22663097 10.10163097 -29.75 11.625 C-29.88568319 15.28844611 -29.91461426 18.13115721 -28.75 21.625 C-23.70749137 24.65288934 -17.65919057 25.95012536 -12.01416016 27.43383789 C-1.74981976 30.13470408 5.86387882 32.72313411 12.25 41.625 C13.83298753 46.37396259 14.29444338 51.09942786 12.34375 55.81640625 C8.71507546 61.94560972 3.80068734 66.80706725 -3.08984375 69.1171875 C-12.90403795 70.99067538 -24.05075678 70.98778648 -32.75 65.625 C-35.625 63.25 -35.625 63.25 -37.75 60.625 C-38.4925 59.7175 -39.235 58.81 -40 57.875 C-42.27516519 53.64969322 -42.46089215 50.39527957 -42.75 45.625 C-39.78 45.625 -36.81 45.625 -33.75 45.625 C-33.75 47.275 -33.75 48.925 -33.75 50.625 C-33.09 50.625 -32.43 50.625 -31.75 50.625 C-31.3375 51.3675 -30.925 52.11 -30.5 52.875 C-27.84976233 57.0396592 -24.38262422 59.08079193 -19.75 60.625 C-13.05231427 61.25366364 -6.80643706 60.69639069 -0.75 57.625 C2.48146515 54.78761596 3.14148479 53.31226298 3.8125 49.0625 C3.57504507 45.58607211 3.57504507 45.58607211 1.32421875 43.6015625 C-2.75285651 40.98021551 -6.85306014 39.83765879 -11.5 38.5625 C-13.22434732 38.07298273 -14.94830892 37.58210467 -16.671875 37.08984375 C-17.51476074 36.84943359 -18.35764648 36.60902344 -19.22607422 36.36132812 C-21.72110709 35.63342919 -24.20398709 34.88102103 -26.6796875 34.08984375 C-27.38335449 33.86546631 -28.08702148 33.64108887 -28.81201172 33.40991211 C-33.94801747 31.32975861 -37.29105038 27.5217014 -39.75 22.625 C-40.646498 16.0946273 -40.44988677 10.17483016 -36.75 4.625 C-36.09 4.625 -35.43 4.625 -34.75 4.625 C-34.75 3.965 -34.75 3.305 -34.75 2.625 C-24.69471726 -4.44906826 -11.14780023 -4.8789001 0 0 Z " fill="#0F0F0F" transform="translate(442.75,665.375)"/>
<path d="M0 0 C3.48105138 2.888532 6.1293174 5.86480688 8 10 C8.1875 13.8125 8.1875 13.8125 8 17 C5.03 17 2.06 17 -1 17 C-1.2475 16.0925 -1.495 15.185 -1.75 14.25 C-3.37142102 10.03430534 -5.18712412 7.876693 -9.26171875 5.90625 C-12.32140941 4.8936277 -14.78282759 4.73358586 -18 4.75 C-19.010625 4.74484375 -20.02125 4.7396875 -21.0625 4.734375 C-24.09688383 5.00876077 -26.239828 5.75046267 -29 7 C-29.99 7.33 -30.98 7.66 -32 8 C-32.10867302 9.58179615 -32.18589827 11.16577153 -32.25 12.75 C-32.31960938 14.07257812 -32.31960938 14.07257812 -32.390625 15.421875 C-31.86663644 18.88019949 -30.75625401 19.89389229 -28 22 C-25.23204949 23.19787613 -25.23204949 23.19787613 -22.125 24 C-20.98160156 24.33 -19.83820313 24.66 -18.66015625 25 C-16.19095993 25.674615 -13.71953079 26.34110314 -11.24609375 27 C-10.03050781 27.33 -8.81492187 27.66 -7.5625 28 C-6.45003906 28.28875 -5.33757812 28.5775 -4.19140625 28.875 C1.07995137 30.73320195 5.33569239 33.79283201 9 38 C10.78244185 43.34732556 11.02356669 49.75383135 9.31640625 55.16796875 C6.20214909 61.02173844 1.72778228 64.61099297 -4.375 66.8125 C-13.52732189 69.22173451 -24.77117017 69.78080768 -33.24609375 65.1171875 C-33.82488281 64.74851562 -34.40367187 64.37984375 -35 64 C-35.9075 63.46375 -36.815 62.9275 -37.75 62.375 C-41.9863425 57.90330514 -44.78208751 52.52778485 -45.3125 46.375 C-45.1578125 45.199375 -45.1578125 45.199375 -45 44 C-42.03 44 -39.06 44 -36 44 C-35.5875 45.2375 -35.175 46.475 -34.75 47.75 C-33.06380183 52.13566222 -31.5019731 54.79341172 -27.12890625 56.90234375 C-20.07123587 59.63231607 -12.65105758 60.36914659 -5.5 57.6875 C-1.36055675 55.00985919 -1.36055675 55.00985919 0.50390625 50.66015625 C0.52324219 49.80292969 0.54257812 48.94570313 0.5625 48.0625 C0.60503906 47.20785156 0.64757812 46.35320313 0.69140625 45.47265625 C-0.13085796 42.53201645 -1.29541934 41.46681916 -3.90258789 39.93139648 C-8.56783842 37.8597016 -13.56560897 36.74928513 -18.5 35.5 C-30.00143578 32.5880758 -36.2540613 30.11890804 -43 20 C-43.58710362 12.95475654 -42.01151249 8.45980149 -38.4375 2.3125 C-28.77227417 -6.85707323 -11.0210299 -6.68204175 0 0 Z " fill="#0D0D0D" transform="translate(380,667)"/>
<path d="M0 0 C9.57263211 6.3443251 16.47387692 15.70612242 19.6640625 26.765625 C20.88814192 35.03691602 20.42649243 43.43718851 20.1640625 51.765625 C20.12383939 54.00514388 20.08735439 56.24473316 20.0546875 58.484375 C19.96749926 63.91302228 19.83444187 69.3389841 19.6640625 74.765625 C18.0140625 74.765625 16.3640625 74.765625 14.6640625 74.765625 C14.64947998 73.54568848 14.63489746 72.32575195 14.61987305 71.06884766 C14.56149323 66.50248257 14.48426554 61.93659031 14.40161133 57.37060547 C14.36854745 55.40193408 14.34045905 53.43317211 14.31762695 51.46435547 C14.28373742 48.61907686 14.23140779 45.77461461 14.17578125 42.9296875 C14.16939133 42.06260162 14.1630014 41.19551575 14.15641785 40.30215454 C13.89851028 29.35587778 10.59212628 20.01374856 3 12.01171875 C-6.60673517 3.26037781 -17.3793887 1.17350264 -29.97265625 1.453125 C-35.13079667 1.71568146 -39.03051275 2.8863722 -43.3359375 5.765625 C-44.0165625 6.18972656 -44.6971875 6.61382812 -45.3984375 7.05078125 C-53.47829986 12.54447555 -59.40016206 20.38735897 -61.88647461 29.86401367 C-62.53502684 34.05089212 -62.57314412 38.21003671 -62.65234375 42.44140625 C-62.67312485 43.3665654 -62.69390594 44.29172455 -62.71531677 45.24491882 C-62.7805031 48.18924807 -62.83955308 51.13366365 -62.8984375 54.078125 C-62.94165214 56.07878483 -62.98526736 58.07943606 -63.02929688 60.08007812 C-63.1361527 64.97517279 -63.23750669 69.87035397 -63.3359375 74.765625 C-64.9859375 74.765625 -66.6359375 74.765625 -68.3359375 74.765625 C-68.38570529 68.82488194 -68.42183006 62.88426265 -68.44580078 56.94335938 C-68.45580326 54.92608524 -68.46940956 52.9088254 -68.48681641 50.89160156 C-68.51131948 47.97717746 -68.52247841 45.06294652 -68.53125 42.1484375 C-68.54157257 41.25947784 -68.55189514 40.37051819 -68.56253052 39.45462036 C-68.56428307 29.47571012 -66.95509173 21.11131465 -61.3359375 12.765625 C-60.73007812 11.85425781 -60.12421875 10.94289063 -59.5 10.00390625 C-45.19795716 -9.48196253 -20.04908457 -11.63411668 0 0 Z " fill="#E8E8E8" transform="translate(514.3359375,284.234375)"/>
<path d="M0 0 C4.29 0 8.58 0 13 0 C13 23.43 13 46.86 13 71 C9.7 71 6.4 71 3 71 C2.67 53.84 2.34 36.68 2 19 C-2.66909484 31.05118885 -2.66909484 31.05118885 -6.1640625 43.1796875 C-7.27277527 45.59398727 -8.57892883 46.0612173 -11 47 C-13.74496158 42.59565487 -12.72541514 39.3088007 -11.796875 34.41015625 C-10.41054768 28.47749082 -8.4859607 22.75484458 -6.5 17 C-6.09652344 15.79988281 -5.69304687 14.59976563 -5.27734375 13.36328125 C-3.71036325 8.74508461 -2.18430399 4.36860798 0 0 Z " fill="#171717" transform="translate(303,761)"/>
<path d="M0 0 C4.16372198 -0.09218573 8.32386084 -0.17169966 12.48779297 -0.21972656 C13.90197795 -0.23975843 15.31608097 -0.26699248 16.72998047 -0.30175781 C18.77071419 -0.35065489 20.8103469 -0.37305123 22.8515625 -0.390625 C24.68968506 -0.4220459 24.68968506 -0.4220459 26.56494141 -0.45410156 C30.66200729 0.08751482 32.80284162 1.43248547 36 4 C37.59671189 7.19342379 37.37418163 10.52545631 37 14 C35.35024446 17.71194997 33.43479361 19.85325399 30 22 C26.70265354 23.09911549 24.27041255 23.1139456 20.80078125 23.09765625 C19.59228516 23.09443359 18.38378906 23.09121094 17.13867188 23.08789062 C15.2447168 23.07532227 15.2447168 23.07532227 13.3125 23.0625 C11.40114258 23.05573242 11.40114258 23.05573242 9.45117188 23.04882812 C6.3007613 23.03702883 3.15037481 23.01909318 0 23 C0 15.41 0 7.82 0 0 Z " fill="#F6F6F6" transform="translate(646,672)"/>
<path d="M0 0 C4.22933734 -0.05395328 8.45798605 -0.09365368 12.6875 -0.125 C13.88568359 -0.14175781 15.08386719 -0.15851562 16.31835938 -0.17578125 C17.47529297 -0.18222656 18.63222656 -0.18867187 19.82421875 -0.1953125 C21.41882935 -0.21102295 21.41882935 -0.21102295 23.0456543 -0.22705078 C26.1317869 0.01012824 28.25558076 0.58552458 31 2 C34.35879447 6.74864046 34.73798042 11.37679707 34 17 C32.64987531 20.65327858 31.53772025 21.69346991 28.15625 23.62109375 C22.82674327 25.80508019 17.22116531 25.31745648 11.5625 25.1875 C5.8390625 25.0946875 5.8390625 25.0946875 0 25 C0 16.75 0 8.5 0 0 Z " fill="#F8F8F8" transform="translate(224,672)"/>
<path d="M0 0 C4.0209236 -0.09219952 8.03913024 -0.17171538 12.06054688 -0.21972656 C13.42623368 -0.23975319 14.79183569 -0.26698332 16.15722656 -0.30175781 C18.12787102 -0.35066432 20.09915983 -0.37091347 22.0703125 -0.390625 C23.84559326 -0.4220459 23.84559326 -0.4220459 25.65673828 -0.45410156 C29.69495048 0.09439228 31.84089889 1.476239 35 4 C36.72986655 7.4597331 36.48431489 11.21710799 36 15 C33.94161475 18.33600367 32.2606736 19.8262176 29 22 C25.99731445 22.22705078 25.99731445 22.22705078 22.36328125 22.1953125 C20.41518555 22.18564453 20.41518555 22.18564453 18.42773438 22.17578125 C17.05598693 22.1590706 15.68424214 22.14214071 14.3125 22.125 C12.92904282 22.11496674 11.54557873 22.10584149 10.16210938 22.09765625 C6.77466543 22.07405037 3.38731105 22.03817883 0 22 C0 14.74 0 7.48 0 0 Z " fill="#FBFBFB" transform="translate(683,770)"/>
<path d="M0 0 C4.63586669 1.69387437 7.51483632 3.69875516 10 8 C10.61787185 12.86574085 10.57627441 14.9297761 8.25 19.25 C6 22 6 22 3.90625 23.5625 C0.96808133 27.31950256 1.32546755 31.10531562 1.25 35.75 C1.20552734 37.08224609 1.20552734 37.08224609 1.16015625 38.44140625 C1.08963082 40.62769449 1.03685363 42.81292768 1 45 C-1.64 45 -4.28 45 -7 45 C-7.00410889 44.44538086 -7.00821777 43.89076172 -7.01245117 43.31933594 C-7.04544181 40.795156 -7.11608378 38.27337304 -7.1875 35.75 C-7.19330078 34.87730469 -7.19910156 34.00460937 -7.20507812 33.10546875 C-7.30833725 27.74453885 -7.30833725 27.74453885 -10.4375 23.5625 C-11.283125 23.046875 -12.12875 22.53125 -13 22 C-15.53393135 18.1554145 -16.64836576 14.68898201 -16.49609375 10.03125 C-15.56122422 6.20343775 -12.87712858 3.57152684 -10 1 C-6.79821961 -0.60089019 -3.48231013 -0.3573266 0 0 Z " fill="#F6F6F6" transform="translate(493,394)"/>
<path d="M0 0 C9.57 0 19.14 0 29 0 C29.103125 4.2075 29.20625 8.415 29.3125 12.75 C29.38078003 14.7314502 29.38078003 14.7314502 29.45043945 16.75292969 C29.46292725 17.79868164 29.47541504 18.84443359 29.48828125 19.921875 C29.51446533 20.99018555 29.54064941 22.05849609 29.56762695 23.15917969 C29 26 29 26 26.62573242 28.26660156 C25.75924072 28.83862305 24.89274902 29.41064453 24 30 C23.175 30.598125 22.35 31.19625 21.5 31.8125 C18.50292007 33.23611297 17.11119779 32.97780502 14 32 C13.67 29.69 13.34 27.38 13 25 C17.75 22 17.75 22 20 22 C20 17.38 20 12.76 20 8 C13.4 8 6.8 8 0 8 C0 5.36 0 2.72 0 0 Z " fill="#060606" transform="translate(565,796)"/>
<path d="M0 0 C3 1 3 1 3.93554688 2.74658203 C4.19400391 3.49278809 4.45246094 4.23899414 4.71875 5.0078125 C5.01136719 5.83023438 5.30398438 6.65265625 5.60546875 7.5 C5.90066406 8.36625 6.19585937 9.2325 6.5 10.125 C7.09200873 11.81571488 7.68573362 13.50582992 8.28125 15.1953125 C8.56613281 16.01290039 8.85101563 16.83048828 9.14453125 17.67285156 C9.92154924 19.78658887 10.7867466 21.81831148 11.71875 23.8671875 C13 27 13 27 13 31 C5.74 31 -1.52 31 -9 31 C-7.67502257 24.37511285 -6.40605962 18.80784611 -3.9375 12.6875 C-2.27459987 8.50432917 -0.70065605 4.47208863 0 0 Z " fill="#EFEFEF" transform="translate(489,772)"/>
<path d="M0 0 C2.69133769 1.34566884 2.81225654 2.5907878 3.875 5.375 C4.22046875 6.27863281 4.5659375 7.18226563 4.921875 8.11328125 C5.27765625 9.06589844 5.6334375 10.01851562 6 11 C6.35578125 11.92167969 6.7115625 12.84335937 7.078125 13.79296875 C9.27035752 19.59256897 10.62599018 24.81695582 12 31 C4.74 31 -2.52 31 -10 31 C-7.74938575 20.87223587 -7.74938575 20.87223587 -6.5625 17.578125 C-6.30726563 16.86269531 -6.05203125 16.14726563 -5.7890625 15.41015625 C-5.52867187 14.69730469 -5.26828125 13.98445312 -5 13.25 C-4.73960937 12.52167969 -4.47921875 11.79335938 -4.2109375 11.04296875 C-2.87742155 7.33202285 -1.49443105 3.64986045 0 0 Z " fill="#F1F1F1" transform="translate(354,772)"/>
<path d="M0 0 C2 1 2 1 2.74609375 3.00390625 C2.97425781 3.84824219 3.20242188 4.69257812 3.4375 5.5625 C5.45451742 12.66240132 8.03564057 19.26897437 11.23046875 25.921875 C12 28 12 28 12 32 C4.74 32 -2.52 32 -10 32 C-9.15393802 26.07756617 -8.15984041 22.35264798 -6 17 C-5.34 17 -4.68 17 -4 17 C-3.87882812 16.35933594 -3.75765625 15.71867188 -3.6328125 15.05859375 C-2.64320773 9.95071067 -1.51489049 4.97749731 0 0 Z " fill="#F1F1F1" transform="translate(296,673)"/>
<path d="M0 0 C0.33 0 0.66 0 1 0 C1 7.26 1 14.52 1 22 C5.02146776 21.94877111 9.04008018 21.88560016 13.06054688 21.79248047 C14.42598164 21.76438377 15.79157564 21.74311323 17.15722656 21.72900391 C19.12854038 21.70742018 21.09949631 21.6586454 23.0703125 21.609375 C24.84559326 21.5779541 24.84559326 21.5779541 26.65673828 21.54589844 C30.60509761 20.90119773 32.8497028 19.40781703 36 17 C40 22.625 40 22.625 40 26 C38.21046815 26.83790789 36.41830305 27.67019396 34.625 28.5 C33.62726562 28.9640625 32.62953125 29.428125 31.6015625 29.90625 C29 31 29 31 27 31 C26.505 28.525 26.505 28.525 26 26 C25.01 25.67 24.02 25.34 23 25 C23.33 24.67 23.66 24.34 24 24 C16.08 23.67 8.16 23.34 0 23 C0 15.41 0 7.82 0 0 Z " fill="#303030" transform="translate(682,770)"/>
<path d="M0 0 C0.66 0 1.32 0 2 0 C2.36504603 1.58086048 2.71660506 3.16483907 3.0625 4.75 C3.25972656 5.63171875 3.45695313 6.5134375 3.66015625 7.421875 C3.99825872 9.98679028 3.81158635 11.57091639 3 14 C2.01 13.01 1.02 12.02 0 11 C-0.66 11.66 -1.32 12.32 -2 13 C-3.31747324 13.69748583 -4.64914193 14.36959957 -6 15 C-4.40109514 9.80355921 -2.25861997 4.93387858 0 0 Z " fill="#2A2A2A" transform="translate(588,493)"/>
<path d="M0 0 C0.33 0 0.66 0 1 0 C1 17.82 1 35.64 1 54 C0.01 53.01 -0.98 52.02 -2 51 C-1.67 50.34 -1.34 49.68 -1 49 C-0.88159887 47.42793357 -0.82296967 45.85116731 -0.79467773 44.27490234 C-0.77473251 43.29403656 -0.75478729 42.31317078 -0.73423767 41.30258179 C-0.71752518 40.24108917 -0.70081268 39.17959656 -0.68359375 38.0859375 C-0.66281265 37.00116119 -0.64203156 35.91638489 -0.62062073 34.79873657 C-0.55509366 31.32422379 -0.49622553 27.84963376 -0.4375 24.375 C-0.39431779 22.02342942 -0.3507036 19.67186674 -0.30664062 17.3203125 C-0.19940907 11.5469573 -0.09764856 5.7735248 0 0 Z " fill="#D8D8D8" transform="translate(441,762)"/>
<path d="M0 0 C9.9 0.33 19.8 0.66 30 1 C30 1.33 30 1.66 30 2 C29.01604248 2.02187378 29.01604248 2.02187378 28.01220703 2.04418945 C25.04919969 2.11851414 22.08733883 2.21522369 19.125 2.3125 C18.09246094 2.33505859 17.05992187 2.35761719 15.99609375 2.38085938 C14.51689453 2.4340332 14.51689453 2.4340332 13.0078125 2.48828125 C12.09660645 2.51446533 11.18540039 2.54064941 10.24658203 2.56762695 C9.50520996 2.71031006 8.76383789 2.85299316 8 3 C7.01 4.485 7.01 4.485 6 6 C3.97945196 4.35830472 1.97956942 2.69088222 0 1 C0 0.67 0 0.34 0 0 Z " fill="#474747" transform="translate(368,204)"/>
<path d="M0 0 C2 2 2 2 2.125 5.625 C2.08375 6.73875 2.0425 7.8525 2 9 C-0.97 9 -3.94 9 -7 9 C-7 7 -7 7 -5.625 5.375 C-4 4 -4 4 -2 4 C-1.34 2.68 -0.68 1.36 0 0 Z " fill="#181818" transform="translate(386,675)"/>
<path d="M0 0 C0.66 0.99 1.32 1.98 2 3 C0.125 6.875 0.125 6.875 -1 8 C0.65 8.33 2.3 8.66 4 9 C4 9.33 4 9.66 4 10 C0.37 10.33 -3.26 10.66 -7 11 C-5.0199877 6.04996925 -3.41170047 3.86060843 0 0 Z " fill="#2B2B2B" transform="translate(572,522)"/>
<path d="M0 0 C0 3.54540188 -0.59385272 4.06007364 -2.875 6.625 C-3.40867187 7.23601563 -3.94234375 7.84703125 -4.4921875 8.4765625 C-6 10 -6 10 -8 11 C-11.12474627 12.63473516 -11.12474627 12.63473516 -11.6875 15.125 C-11.790625 15.74375 -11.89375 16.3625 -12 17 C-13.5 15.625 -13.5 15.625 -15 14 C-15 13.34 -15 12.68 -15 12 C-13.09255364 10.44151282 -11.18850141 8.99112731 -9.1875 7.5625 C-4.32976571 4.09286015 -4.32976571 4.09286015 0 0 Z " fill="#D8D8D8" transform="translate(613,506)"/>
<path d="M0 0 C0.99 0 1.98 0 3 0 C2.67 1.32 2.34 2.64 2 4 C1.01 4 0.02 4 -1 4 C-1.33 4.99 -1.66 5.98 -2 7 C-3.66666667 7.66666667 -5.33333333 8.33333333 -7 9 C-7.33 9.99 -7.66 10.98 -8 12 C-8.99 11.67 -9.98 11.34 -11 11 C-11 10.01 -11 9.02 -11 8 C-9.9275 7.4225 -8.855 6.845 -7.75 6.25 C-5.3285556 4.88305558 -3.74712955 3.74712955 -1.75 1.75 C-0.88375 0.88375 -0.88375 0.88375 0 0 Z " fill="#E4E4E4" transform="translate(617,723)"/>
<path d="M0 0 C-0.33 9.57 -0.66 19.14 -1 29 C-1.33 29 -1.66 29 -2 29 C-2.33 21.41 -2.66 13.82 -3 6 C-3.99 5.67 -4.98 5.34 -6 5 C-1.125 0 -1.125 0 0 0 Z " fill="#434343" transform="translate(654,247)"/>
<path d="M0 0 C9.9 0 19.8 0 30 0 C30 0.99 30 1.98 30 3 C29.67 2.67 29.34 2.34 29 2 C27.00035018 1.91241997 24.9976389 1.89303424 22.99609375 1.90234375 C21.17368164 1.90717773 21.17368164 1.90717773 19.31445312 1.91210938 C18.03505859 1.92048828 16.75566406 1.92886719 15.4375 1.9375 C13.51260742 1.94426758 13.51260742 1.94426758 11.54882812 1.95117188 C8.36583978 1.96300455 5.18294238 1.97948932 2 2 C2 2.66 2 3.32 2 4 C1.01 4.33 0.02 4.66 -1 5 C-0.67 3.35 -0.34 1.7 0 0 Z " fill="#E2E2E2" transform="translate(340,811)"/>
<path d="M0 0 C0.33 0.99 0.66 1.98 1 3 C-11.25 15.25 -11.25 15.25 -14 17 C-14.99 16.67 -15.98 16.34 -17 16 C-11.25 11 -11.25 11 -9 11 C-8.67 10.01 -8.34 9.02 -8 8 C-6.01739574 6.31267723 -4.0167658 4.64633943 -2 3 C-1.34 2.01 -0.68 1.02 0 0 Z " fill="#2C2C2C" transform="translate(617,488)"/>
<path d="M0 0 C2.97 0.99 5.94 1.98 9 3 C9 3.66 9 4.32 9 5 C7.43883181 5.33951619 5.87598662 5.67132544 4.3125 6 C3.00732422 6.2784375 3.00732422 6.2784375 1.67578125 6.5625 C-0.93712964 6.98972047 -3.35813038 7.07616201 -6 7 C-4 6 -2 5 0 4 C0 2.68 0 1.36 0 0 Z " fill="#1B1B1B" transform="translate(355,463)"/>
<path d="M0 0 C0.33 0 0.66 0 1 0 C1 4.29 1 8.58 1 13 C1.66 13 2.32 13 3 13 C3 13.66 3 14.32 3 15 C1.04072937 16.7143618 -0.95880212 18.38405168 -3 20 C-3 19.34 -3 18.68 -3 18 C-4.32 17.67 -5.64 17.34 -7 17 C-2.25 14 -2.25 14 0 14 C0 9.38 0 4.76 0 0 Z " fill="#1D1D1D" transform="translate(585,804)"/>
<path d="M0 0 C1.2872642 2.5745284 1.34791629 4.14708645 1 7 C-0.29735507 8.04625409 -1.63266972 9.04701223 -3 10 C-3.165 10.680625 -3.33 11.36125 -3.5 12.0625 C-4 14 -4 14 -6.0625 15.25 C-6.701875 15.4975 -7.34125 15.745 -8 16 C-6.42986223 10.03347646 -3.24970218 5.17090975 0 0 Z " fill="#DADADA" transform="translate(341,274)"/>
<path d="M0 0 C0.78375 0.04125 1.5675 0.0825 2.375 0.125 C2.705 0.785 3.035 1.445 3.375 2.125 C1.395 2.785 -0.585 3.445 -2.625 4.125 C-2.625 5.115 -2.625 6.105 -2.625 7.125 C-1.635 7.455 -0.645 7.785 0.375 8.125 C0.045 8.785 -0.285 9.445 -0.625 10.125 C-1.945 9.465 -3.265 8.805 -4.625 8.125 C-4.75 5.25 -4.75 5.25 -4.625 2.125 C-2.625 0.125 -2.625 0.125 0 0 Z " fill="#262626" transform="translate(559.625,195.875)"/>
<path d="M0 0 C-1.69636171 2.10407096 -2.54981464 2.93240678 -5.26831055 3.34057617 C-6.13238525 3.32486572 -6.99645996 3.30915527 -7.88671875 3.29296875 C-8.82451172 3.28330078 -9.76230469 3.27363281 -10.72851562 3.26367188 C-11.70498047 3.23853516 -12.68144531 3.21339844 -13.6875 3.1875 C-14.67556641 3.17396484 -15.66363281 3.16042969 -16.68164062 3.14648438 C-19.12164231 3.11112203 -21.56054719 3.06177033 -24 3 C-24 2.67 -24 2.34 -24 2 C-22.99839844 1.95101562 -21.99679687 1.90203125 -20.96484375 1.8515625 C-19.62237241 1.77645921 -18.2799257 1.70091474 -16.9375 1.625 C-15.62652344 1.55539062 -14.31554687 1.48578125 -12.96484375 1.4140625 C-10.05034241 1.10969093 -7.86039021 0.7411821 -5.12890625 -0.1015625 C-2 -1 -2 -1 0 0 Z " fill="#ADADAD" transform="translate(507,592)"/>
<path d="M0 0 C0.33 0.66 0.66 1.32 1 2 C-2.80411834 5.91939465 -6.81576108 9.49102731 -11 13 C-11.66 12.67 -12.32 12.34 -13 12 C-11.58653438 10.55935235 -10.16908789 9.12260985 -8.75 7.6875 C-7.96109375 6.88699219 -7.1721875 6.08648437 -6.359375 5.26171875 C-4.32605933 3.31256349 -2.29398922 1.62578594 0 0 Z " fill="#242424" transform="translate(369,227)"/>
<path d="M0 0 C0 0.99 0 1.98 0 3 C0.31669821 5.33564933 0.64820803 7.6693782 1 10 C0.01 10.495 0.01 10.495 -1 11 C-1 10.34 -1 9.68 -1 9 C-1.66 9 -2.32 9 -3 9 C-3 8.34 -3 7.68 -3 7 C-3.66 6.67 -4.32 6.34 -5 6 C-3.35 4.02 -1.7 2.04 0 0 Z " fill="#E6E6E6" transform="translate(458,291)"/>
<path d="M0 0 C0.66 0 1.32 0 2 0 C1.45276317 3.37462715 0.9451 5.08235 -1 8 C-3.62187494 6.95125002 -4.79371361 6.35068687 -6.25 3.875 C-6.4975 3.25625 -6.745 2.6375 -7 2 C-4.03 2.495 -4.03 2.495 -1 3 C-0.67 2.01 -0.34 1.02 0 0 Z " fill="#EBEBEB" transform="translate(644,252)"/>
<path d="M0 0 C2 1.25 2 1.25 4 3 C4 4.32 4 5.64 4 7 C2.35 7 0.7 7 -1 7 C-1.04254356 5.00045254 -1.04080783 2.99958364 -1 1 C-0.67 0.67 -0.34 0.34 0 0 Z " fill="#191919" transform="translate(589,775)"/>
<path d="M0 0 C1.32 0.66 2.64 1.32 4 2 C3.236875 2.4125 2.47375 2.825 1.6875 3.25 C-0.9366642 4.95875809 -2.30321976 6.41017753 -4 9 C-4.66 8.34 -5.32 7.68 -6 7 C-4.02 4.69 -2.04 2.38 0 0 Z " fill="#282828" transform="translate(353,242)"/>
<path d="M0 0 C5.61 0 11.22 0 17 0 C17.33 1.32 17.66 2.64 18 4 C17.01 3.67 16.02 3.34 15 3 C15 2.34 15 1.68 15 1 C13.75283203 1.14308594 13.75283203 1.14308594 12.48046875 1.2890625 C11.39378906 1.39992188 10.30710937 1.51078125 9.1875 1.625 C7.56908203 1.79902344 7.56908203 1.79902344 5.91796875 1.9765625 C3 2 3 2 0 0 Z " fill="#E5E5E5" transform="translate(683,801)"/>
<path d="M0 0 C0.74609375 1.734375 0.74609375 1.734375 1 4 C-0.65234375 6.140625 -0.65234375 6.140625 -2.9375 8.25 C-3.68902344 8.95640625 -4.44054687 9.6628125 -5.21484375 10.390625 C-5.80394531 10.92171875 -6.39304687 11.4528125 -7 12 C-7.99 11.67 -8.98 11.34 -10 11 C-9.52949219 10.62488281 -9.05898438 10.24976563 -8.57421875 9.86328125 C-4.93360516 6.87089285 -2.14546696 4.29093391 0 0 Z " fill="#CECECE" transform="translate(524,575)"/>
<path d="M0 0 C0.66 0.33 1.32 0.66 2 1 C0.625 3 0.625 3 -1 5 C-1.66 5 -2.32 5 -3 5 C-2.67 6.32 -2.34 7.64 -2 9 C-2.99 9.33 -3.98 9.66 -5 10 C-5 9.34 -5 8.68 -5 8 C-5.66 7.67 -6.32 7.34 -7 7 C-4.69 4.69 -2.38 2.38 0 0 Z " fill="#E7E7E7" transform="translate(472,162)"/>
<path d="M0 0 C5 2 5 2 6.375 4.375 C7 7 7 7 6 11 C4.02 7.37 2.04 3.74 0 0 Z " fill="#E8E8E8" transform="translate(724,814)"/>
<path d="M0 0 C0.33 0 0.66 0 1 0 C1 4.29 1 8.58 1 13 C-0.65 13.66 -2.3 14.32 -4 15 C-4.33 14.34 -4.66 13.68 -5 13 C-4.34 12.34 -3.68 11.68 -3 11 C-2.01 11.33 -1.02 11.66 0 12 C0 8.04 0 4.08 0 0 Z " fill="#E3E3E3" transform="translate(584,805)"/>
<path d="M0 0 C0.66 1.32 1.32 2.64 2 4 C-0.31 5.98 -2.62 7.96 -5 10 C-5.66 9.67 -6.32 9.34 -7 9 C-5.625 7 -5.625 7 -4 5 C-3.34 5 -2.68 5 -2 5 C-1.34 3.35 -0.68 1.7 0 0 Z " fill="#272727" transform="translate(517,568)"/>
<path d="M0 0 C1.0625 1.875 1.0625 1.875 2 4 C0.74458443 6.51083114 -0.50063488 6.87125446 -3 8 C-3.75 6.25 -3.75 6.25 -4 4 C-2.0625 1.75 -2.0625 1.75 0 0 Z " fill="#DFDFDF" transform="translate(638,344)"/>
<path d="M0 0 C0 4.35251187 -2.06165511 5.92809398 -5 9 C-7.3125 9.875 -7.3125 9.875 -9 10 C-6.68116787 5.49115974 -3.93548431 3.06093224 0 0 Z " fill="#2F2F2F" transform="translate(457,278)"/>
<path d="M0 0 C2.91517292 1.07401108 4.77810176 1.77810176 7 4 C4 5 4 5 1 5 C0.01 4.34 -0.98 3.68 -2 3 C-1.34 2.01 -0.68 1.02 0 0 Z " fill="#151515" transform="translate(516,275)"/>
<path d="M0 0 C0.66 0.33 1.32 0.66 2 1 C0.73134318 3.53731364 -0.49709121 3.78646846 -3 5 C-3.66 5.66 -4.32 6.32 -5 7 C-5.66 7 -6.32 7 -7 7 C-5.55609075 3.19333016 -3.65047197 1.73397418 0 0 Z " fill="#303030" transform="translate(348,665)"/>
<path d="M0 0 C0 0.99 0 1.98 0 3 C-0.66 3 -1.32 3 -2 3 C-2 3.99 -2 4.98 -2 6 C-2.99 6 -3.98 6 -5 6 C-6.68798827 7.43750191 -6.68798827 7.43750191 -8 9 C-6.68994234 5.06982701 -4.75047804 0 0 0 Z " fill="#D3D3D3" transform="translate(472,529)"/>
<path d="M0 0 C0.99 0.99 1.98 1.98 3 3 C2.01 3.99 1.02 4.98 0 6 C-1.32 5.34 -2.64 4.68 -4 4 C-2.68 2.68 -1.36 1.36 0 0 Z " fill="#EAEAEA" transform="translate(379,214)"/>
<path d="M0 0 C3.875 4.75 3.875 4.75 5 7 C4.01 7.33 3.02 7.66 2 8 C2 7.34 2 6.68 2 6 C1.34 6 0.68 6 0 6 C-1.125 2.25 -1.125 2.25 0 0 Z " fill="#222222" transform="translate(434,805)"/>
<path d="M0 0 C0.66 0.33 1.32 0.66 2 1 C2 2.98 2 4.96 2 7 C0.02 5.68 -1.96 4.36 -4 3 C-3 1 -3 1 0 0 Z " fill="#C9C9C9" transform="translate(715,798)"/>
<path d="M0 0 C0.66 0.33 1.32 0.66 2 1 C0.7260411 3.03833424 -0.61061923 5.03852126 -2 7 C-2.66 7 -3.32 7 -4 7 C-4.33 7.66 -4.66 8.32 -5 9 C-5.33 8.01 -5.66 7.02 -6 6 C-4 4 -2 2 0 0 Z " fill="#222222" transform="translate(544,765)"/>
<path d="M0 0 C0 3 0 3 -1.8125 5.1875 C-4 7 -4 7 -7 7 C-7 6.01 -7 5.02 -7 4 C-4.69 2.68 -2.38 1.36 0 0 Z " fill="#CACACA" transform="translate(613,727)"/>
<path d="M0 0 C1.5 1.1875 1.5 1.1875 3 3 C3.1875 5.6875 3.1875 5.6875 3 8 C1.35 6.35 -0.3 4.7 -2 3 C-1.34 3 -0.68 3 0 3 C0 2.01 0 1.02 0 0 Z M3 0 C3.66 0.66 4.32 1.32 5 2 C4.34 2 3.68 2 3 2 C3 1.34 3 0.68 3 0 Z " fill="#191919" transform="translate(375,670)"/>
<path d="M0 0 C0.99 0.33 1.98 0.66 3 1 C3 1.66 3 2.32 3 3 C4.32 3 5.64 3 7 3 C6.67 4.32 6.34 5.64 6 7 C1.125 2.25 1.125 2.25 0 0 Z " fill="#1D1D1D" transform="translate(455,575)"/>
<path d="M0 0 C0.33 0.66 0.66 1.32 1 2 C1.66 1.67 2.32 1.34 3 1 C4.54023996 0.93049459 6.08334988 0.91547643 7.625 0.9375 C8.85089844 0.95103516 8.85089844 0.95103516 10.1015625 0.96484375 C11.04128906 0.98224609 11.04128906 0.98224609 12 1 C12 1.33 12 1.66 12 2 C10.081875 2.4640625 10.081875 2.4640625 8.125 2.9375 C5.89898325 3.47605244 4.05260001 3.9737 2 5 C2 4.34 2 3.68 2 3 C1.34 3 0.68 3 0 3 C0 2.01 0 1.02 0 0 Z " fill="#E3E3E3" transform="translate(564,531)"/>
<path d="M0 0 C0.99 0.33 1.98 0.66 3 1 C3 2.98 3 4.96 3 7 C2.01 7.495 2.01 7.495 1 8 C1 6.68 1 5.36 1 4 C0.34 3.67 -0.32 3.34 -1 3 C-0.67 2.01 -0.34 1.02 0 0 Z " fill="#141414" transform="translate(422,531)"/>
<path d="M0 0 C0.66 0.33 1.32 0.66 2 1 C2 3 2 3 0.1875 5.125 C-2 7 -2 7 -5 7 C-3.70700306 4.11562221 -2.34058637 2.12780579 0 0 Z " fill="#DDDDDD" transform="translate(336,478)"/>
<path d="M0 0 C3.375 -0.125 3.375 -0.125 7 0 C7.66 0.66 8.32 1.32 9 2 C8.625 4.125 8.625 4.125 8 6 C7.34 5.67 6.68 5.34 6 5 C6 4.01 6 3.02 6 2 C4.02 2 2.04 2 0 2 C0 1.34 0 0.68 0 0 Z " fill="#303030" transform="translate(653,433)"/>
<path d="M0 0 C2.7972908 2.06756277 3.02692273 3.14440371 3.6875 6.6875 C3.790625 7.780625 3.89375 8.87375 4 10 C3.01 8.68 2.02 7.36 1 6 C0.01 6.495 0.01 6.495 -1 7 C-0.7525 6.1028125 -0.7525 6.1028125 -0.5 5.1875 C0.1114124 2.88655664 0.1114124 2.88655664 0 0 Z " fill="#CACACA" transform="translate(348,353)"/>
<path d="M0 0 C1.65 0.33 3.3 0.66 5 1 C4.67 1.99 4.34 2.98 4 4 C2.35 4.33 0.7 4.66 -1 5 C-0.67 3.35 -0.34 1.7 0 0 Z " fill="#F4F4F4" transform="translate(476,811)"/>
<path d="M0 0 C0.66 0.33 1.32 0.66 2 1 C2 1.66 2 2.32 2 3 C2.66 3.33 3.32 3.66 4 4 C0.87819599 4.96661363 -1.52083795 4.98988909 -4.75 4.5625 C-5.94882812 4.40974609 -5.94882812 4.40974609 -7.171875 4.25390625 C-7.77515625 4.17011719 -8.3784375 4.08632813 -9 4 C-9 3.67 -9 3.34 -9 3 C-6.03 3 -3.06 3 0 3 C0 2.01 0 1.02 0 0 Z " fill="#D6D6D6" transform="translate(388,681)"/>
<path d="M0 0 C1.32 1.65 2.64 3.3 4 5 C1 6 1 6 -3 6 C-2 4 -1 2 0 0 Z " fill="#131313" transform="translate(464,571)"/>
<path d="M0 0 C1.6875 1.25 1.6875 1.25 2.6875 3.25 C-0.9425 2.92 -4.5725 2.59 -8.3125 2.25 C-8.3125 1.92 -8.3125 1.59 -8.3125 1.25 C-2.93226549 -0.95100503 -2.93226549 -0.95100503 0 0 Z " fill="#222222" transform="translate(608.3125,528.75)"/>
<path d="M0 0 C0.66 0.33 1.32 0.66 2 1 C1.38125 1.5775 0.7625 2.155 0.125 2.75 C-1.81347053 4.80249821 -2.90014249 6.43366582 -4 9 C-4.66 8.67 -5.32 8.34 -6 8 C-4.55746343 4.63408134 -2.66735273 2.48952921 0 0 Z " fill="#D3D3D3" transform="translate(472,300)"/>
<path d="M0 0 C0.99 0.33 1.98 0.66 3 1 C0.25 6.875 0.25 6.875 -2 8 C-1.125 1.125 -1.125 1.125 0 0 Z " fill="#E7E7E7" transform="translate(514,201)"/>
<path d="M0 0 C0 0.99 0 1.98 0 3 C-2 4.6875 -2 4.6875 -4 6 C-5.32 5.34 -6.64 4.68 -8 4 C-5.36 2.68 -2.72 1.36 0 0 Z " fill="#CBCBCB" transform="translate(753,728)"/>
<path d="M0 0 C0.66 0.33 1.32 0.66 2 1 C0.375 3.0625 0.375 3.0625 -2 5 C-5.25 4.75 -5.25 4.75 -8 4 C-5.31143836 2.20762558 -3.0466145 1.01553817 0 0 Z " fill="#2E2E2E" transform="translate(746,722)"/>
<path d="M0 0 C0.33 0.66 0.66 1.32 1 2 C1.99 1.67 2.98 1.34 4 1 C3.34 2.98 2.68 4.96 2 7 C0.4375 5.75 0.4375 5.75 -1 4 C-0.6875 1.8125 -0.6875 1.8125 0 0 Z " fill="#DFDFDF" transform="translate(273,701)"/>
<path d="M0 0 C1.1875 1.6875 1.1875 1.6875 2 4 C0.67172689 6.85578718 -0.14643942 8.57321971 -3 10 C-3 9.34 -3 8.68 -3 8 C-3.66 7.67 -4.32 7.34 -5 7 C-4.0409375 6.6596875 -4.0409375 6.6596875 -3.0625 6.3125 C-0.72806339 5.14749104 -0.72806339 5.14749104 -0.25 2.375 C-0.1675 1.59125 -0.085 0.8075 0 0 Z " fill="#D6D6D6" transform="translate(425,533)"/>
<path d="M0 0 C0.53625 0.226875 1.0725 0.45375 1.625 0.6875 C-1.04166667 2.02083333 -3.70833333 3.35416667 -6.375 4.6875 C-7.035 4.0275 -7.695 3.3675 -8.375 2.6875 C-2.95961538 -0.38942308 -2.95961538 -0.38942308 0 0 Z " fill="#292929" transform="translate(646.375,329.3125)"/>
<path d="M0 0 C2.625 0.9375 2.625 0.9375 5 2 C4.67 2.66 4.34 3.32 4 4 C1 4 1 4 -0.6875 2.5 C-1.120625 2.005 -1.55375 1.51 -2 1 C-1.34 0.67 -0.68 0.34 0 0 Z " fill="#D6D6D6" transform="translate(722,763)"/>
<path d="M0 0 C1.32 1.65 2.64 3.3 4 5 C3.01 6.485 3.01 6.485 2 8 C0.68 6.02 -0.64 4.04 -2 2 C-1.34 2 -0.68 2 0 2 C0 1.34 0 0.68 0 0 Z " fill="#DEDEDE" transform="translate(562,718)"/>
</svg>
